<?xml version="1.0" encoding="UTF-8" standalone="no"?>
<!DOCTYPE svg PUBLIC "-//W3C//DTD SVG 1.1//EN"
 "http://www.w3.org/Graphics/SVG/1.1/DTD/svg11.dtd">
<!-- Generated by graphviz version 2.43.0 (0)
 -->
<!-- Title: fiftyone.devicedetection.examples.console.comparison.Detection.BenchmarkResult Pages: 1 -->
<svg width="934pt" height="57pt"
 viewBox="0.00 0.00 934.00 56.50" xmlns="http://www.w3.org/2000/svg" xmlns:xlink="http://www.w3.org/1999/xlink">
<g id="graph0" class="graph" transform="scale(1 1) rotate(0) translate(4 52.5)">
<title>fiftyone.devicedetection.examples.console.comparison.Detection.BenchmarkResult</title>
<!-- Node1 -->
<g id="node1" class="node">
<title>Node1</title>
<g id="a_node1"><a xlink:title="The result of carrying out a benchmark on a single thread.">
<polygon fill="#bfbfbf" stroke="black" points="637,-0.5 637,-30.5 926,-30.5 926,-0.5 637,-0.5"/>
<text text-anchor="start" x="645" y="-18.5" font-family="Helvetica,sans-Serif" font-size="10.00">fiftyone.devicedetection.examples.console.comparison.</text>
<text text-anchor="middle" x="781.5" y="-7.5" font-family="Helvetica,sans-Serif" font-size="10.00">Detection.BenchmarkResult</text>
</a>
</g>
</g>
<!-- Node2 -->
<g id="node2" class="node">
<title>Node2</title>
<g id="a_node2"><a xlink:title=" ">
<polygon fill="none" stroke="#bfbfbf" points="231,-0.5 231,-30.5 548,-30.5 548,-0.5 231,-0.5"/>
<text text-anchor="start" x="239" y="-18.5" font-family="Helvetica,sans-Serif" font-size="10.00">List&lt; fiftyone.devicedetection.examples.console.comparison.</text>
<text text-anchor="middle" x="389.5" y="-7.5" font-family="Helvetica,sans-Serif" font-size="10.00">Detection.Properties &gt;</text>
</a>
</g>
</g>
<!-- Node2&#45;&gt;Node1 -->
<g id="edge1" class="edge">
<title>Node2&#45;&gt;Node1</title>
<path fill="none" stroke="#9a32cd" stroke-dasharray="5,2" d="M558.03,-15.5C584.29,-15.5 611.23,-15.5 636.89,-15.5"/>
<polygon fill="#9a32cd" stroke="#9a32cd" points="558,-12 548,-15.5 558,-19 558,-12"/>
<text text-anchor="middle" x="592.5" y="-18.5" font-family="Helvetica,sans-Serif" font-size="10.00"> properties</text>
</g>
<!-- Node3 -->
<g id="node3" class="node">
<title>Node3</title>
<g id="a_node3"><a xlink:title=" ">
<polygon fill="none" stroke="#bfbfbf" points="0,-6 0,-25 34,-25 34,-6 0,-6"/>
<text text-anchor="middle" x="17" y="-13" font-family="Helvetica,sans-Serif" font-size="10.00">List</text>
</a>
</g>
</g>
<!-- Node3&#45;&gt;Node2 -->
<g id="edge2" class="edge">
<title>Node3&#45;&gt;Node2</title>
<path fill="none" stroke="orange" stroke-dasharray="5,2" d="M44.41,-15.5C83.55,-15.5 159.96,-15.5 230.85,-15.5"/>
<polygon fill="orange" stroke="orange" points="44.4,-12 34.4,-15.5 44.4,-19 44.4,-12"/>
<text text-anchor="start" x="52" y="-40.5" font-family="Helvetica,sans-Serif" font-size="10.00"> &lt; fiftyone::devicedetection</text>
<text text-anchor="start" x="52" y="-29.5" font-family="Helvetica,sans-Serif" font-size="10.00">::examples::console::comparison</text>
<text text-anchor="middle" x="132.5" y="-18.5" font-family="Helvetica,sans-Serif" font-size="10.00">::Detection::Properties &gt;</text>
</g>
</g>
</svg>
