<?xml version="1.0" encoding="UTF-8" standalone="no"?>
<!DOCTYPE svg PUBLIC "-//W3C//DTD SVG 1.1//EN"
 "http://www.w3.org/Graphics/SVG/1.1/DTD/svg11.dtd">
<!-- Generated by graphviz version 2.43.0 (0)
 -->
<!-- Title: fiftyone.devicedetection.hash.engine.onpremise.flowelements.DeviceDataHashDefault Pages: 1 -->
<svg width="1173pt" height="119pt"
 viewBox="0.00 0.00 1173.00 118.50" xmlns="http://www.w3.org/2000/svg" xmlns:xlink="http://www.w3.org/1999/xlink">
<g id="graph0" class="graph" transform="scale(1 1) rotate(0) translate(4 114.5)">
<title>fiftyone.devicedetection.hash.engine.onpremise.flowelements.DeviceDataHashDefault</title>
<!-- Node0 -->
<g id="node1" class="node">
<title>Node0</title>
<g id="a_node1"><a xlink:title="Internal implementation of the DeviceDataHash interface.">
<polygon fill="#bfbfbf" stroke="black" points="842,-33 842,-63 1165,-63 1165,-33 842,-33"/>
<text text-anchor="start" x="850" y="-51" font-family="Helvetica,sans-Serif" font-size="10.00">fiftyone.devicedetection.hash.engine.onpremise.flowelements.</text>
<text text-anchor="middle" x="1003.5" y="-40" font-family="Helvetica,sans-Serif" font-size="10.00">DeviceDataHashDefault</text>
</a>
</g>
</g>
<!-- Node1 -->
<g id="node2" class="node">
<title>Node1</title>
<g id="a_node2"><a xlink:href="classfiftyone_1_1devicedetection_1_1shared_1_1_device_data_base_on_premise.html" target="_top" xlink:title="Base class used for all 51Degrees on&#45;premise device detection results classes.">
<polygon fill="none" stroke="black" points="633,-79 633,-109 806,-109 806,-79 633,-79"/>
<text text-anchor="start" x="641" y="-97" font-family="Helvetica,sans-Serif" font-size="10.00">fiftyone.devicedetection.shared.</text>
<text text-anchor="middle" x="719.5" y="-86" font-family="Helvetica,sans-Serif" font-size="10.00">DeviceDataBaseOnPremise</text>
</a>
</g>
</g>
<!-- Node1&#45;&gt;Node0 -->
<g id="edge1" class="edge">
<title>Node1&#45;&gt;Node0</title>
<path fill="none" stroke="midnightblue" d="M816.42,-78.35C846.76,-73.4 880.21,-67.95 910.29,-63.04"/>
<polygon fill="midnightblue" stroke="midnightblue" points="815.56,-74.95 806.26,-80.01 816.69,-81.86 815.56,-74.95"/>
</g>
<!-- Node2 -->
<g id="node3" class="node">
<title>Node2</title>
<g id="a_node3"><a xlink:href="classfiftyone_1_1devicedetection_1_1shared_1_1_device_data_base.html" target="_top" xlink:title=" ">
<polygon fill="none" stroke="black" points="371,-80 371,-110 544,-110 544,-80 371,-80"/>
<text text-anchor="start" x="379" y="-98" font-family="Helvetica,sans-Serif" font-size="10.00">fiftyone.devicedetection.shared.</text>
<text text-anchor="middle" x="457.5" y="-87" font-family="Helvetica,sans-Serif" font-size="10.00">DeviceDataBase</text>
</a>
</g>
</g>
<!-- Node2&#45;&gt;Node1 -->
<g id="edge2" class="edge">
<title>Node2&#45;&gt;Node1</title>
<path fill="none" stroke="midnightblue" d="M554.46,-94.63C580.11,-94.53 607.67,-94.43 632.74,-94.33"/>
<polygon fill="midnightblue" stroke="midnightblue" points="554.34,-91.13 544.35,-94.67 554.37,-98.13 554.34,-91.13"/>
</g>
<!-- Node3 -->
<g id="node4" class="node">
<title>Node3</title>
<g id="a_node4"><a xlink:title=" ">
<polygon fill="none" stroke="#bfbfbf" points="147,-85.5 147,-104.5 244,-104.5 244,-85.5 147,-85.5"/>
<text text-anchor="middle" x="195.5" y="-92.5" font-family="Helvetica,sans-Serif" font-size="10.00">AspectDataBase</text>
</a>
</g>
</g>
<!-- Node3&#45;&gt;Node2 -->
<g id="edge3" class="edge">
<title>Node3&#45;&gt;Node2</title>
<path fill="none" stroke="midnightblue" d="M254.49,-95C288.76,-95 332.78,-95 370.98,-95"/>
<polygon fill="midnightblue" stroke="midnightblue" points="254.19,-91.5 244.19,-95 254.19,-98.5 254.19,-91.5"/>
</g>
<!-- Node4 -->
<g id="node5" class="node">
<title>Node4</title>
<g id="a_node5"><a xlink:href="interfacefiftyone_1_1devicedetection_1_1shared_1_1_device_data.html" target="_top" xlink:title="Interface exposing typed accessors for properties related to a device returned by a device detection ...">
<polygon fill="none" stroke="black" points="109,-34 109,-64 282,-64 282,-34 109,-34"/>
<text text-anchor="start" x="117" y="-52" font-family="Helvetica,sans-Serif" font-size="10.00">fiftyone.devicedetection.shared.</text>
<text text-anchor="middle" x="195.5" y="-41" font-family="Helvetica,sans-Serif" font-size="10.00">DeviceData</text>
</a>
</g>
</g>
<!-- Node4&#45;&gt;Node2 -->
<g id="edge4" class="edge">
<title>Node4&#45;&gt;Node2</title>
<path fill="none" stroke="midnightblue" d="M289.25,-65.87C298.96,-67.61 308.68,-69.35 318,-71 335.06,-74.02 353.31,-77.21 370.78,-80.25"/>
<polygon fill="midnightblue" stroke="midnightblue" points="289.62,-62.38 279.16,-64.05 288.38,-69.27 289.62,-62.38"/>
</g>
<!-- Node6 -->
<g id="node7" class="node">
<title>Node6</title>
<g id="a_node7"><a xlink:href="interfacefiftyone_1_1devicedetection_1_1hash_1_1engine_1_1onpremise_1_1data_1_1_device_data_hash.html" target="_top" xlink:title="Hash specific interface for DeviceData.">
<polygon fill="none" stroke="black" points="318,-31 318,-61 597,-61 597,-31 318,-31"/>
<text text-anchor="start" x="326" y="-49" font-family="Helvetica,sans-Serif" font-size="10.00">fiftyone.devicedetection.hash.engine.onpremise.data.</text>
<text text-anchor="middle" x="457.5" y="-38" font-family="Helvetica,sans-Serif" font-size="10.00">DeviceDataHash</text>
</a>
</g>
</g>
<!-- Node4&#45;&gt;Node6 -->
<g id="edge7" class="edge">
<title>Node4&#45;&gt;Node6</title>
<path fill="none" stroke="midnightblue" d="M292.62,-47.89C300.82,-47.8 309.21,-47.7 317.65,-47.6"/>
<polygon fill="midnightblue" stroke="midnightblue" points="292.31,-44.39 282.35,-48.01 292.39,-51.39 292.31,-44.39"/>
</g>
<!-- Node5 -->
<g id="node6" class="node">
<title>Node5</title>
<g id="a_node6"><a xlink:title=" ">
<polygon fill="none" stroke="#bfbfbf" points="0,-39.5 0,-58.5 73,-58.5 73,-39.5 0,-39.5"/>
<text text-anchor="middle" x="36.5" y="-46.5" font-family="Helvetica,sans-Serif" font-size="10.00">AspectData</text>
</a>
</g>
</g>
<!-- Node5&#45;&gt;Node4 -->
<g id="edge5" class="edge">
<title>Node5&#45;&gt;Node4</title>
<path fill="none" stroke="midnightblue" d="M83.36,-49C91.42,-49 100.04,-49 108.78,-49"/>
<polygon fill="midnightblue" stroke="midnightblue" points="83.13,-45.5 73.13,-49 83.13,-52.5 83.13,-45.5"/>
</g>
<!-- Node6&#45;&gt;Node0 -->
<g id="edge6" class="edge">
<title>Node6&#45;&gt;Node0</title>
<path fill="none" stroke="midnightblue" d="M607.34,-46.55C680.06,-46.81 767.66,-47.14 841.89,-47.41"/>
<polygon fill="midnightblue" stroke="midnightblue" points="607.19,-43.05 597.18,-46.51 607.17,-50.05 607.19,-43.05"/>
</g>
<!-- Node7 -->
<g id="node8" class="node">
<title>Node7</title>
<g id="a_node8"><a xlink:title=" ">
<polygon fill="none" stroke="#bfbfbf" points="676,-0.5 676,-19.5 763,-19.5 763,-0.5 676,-0.5"/>
<text text-anchor="middle" x="719.5" y="-7.5" font-family="Helvetica,sans-Serif" font-size="10.00">AutoCloseable</text>
</a>
</g>
</g>
<!-- Node7&#45;&gt;Node0 -->
<g id="edge8" class="edge">
<title>Node7&#45;&gt;Node0</title>
<path fill="none" stroke="midnightblue" d="M772.95,-17.07C806.12,-21.54 850.28,-27.49 891.01,-32.98"/>
<polygon fill="midnightblue" stroke="midnightblue" points="773.4,-13.6 763.02,-15.73 772.47,-20.53 773.4,-13.6"/>
</g>
</g>
</svg>
