<?xml version="1.0" encoding="UTF-8" standalone="no"?>
<!DOCTYPE svg PUBLIC "-//W3C//DTD SVG 1.1//EN"
 "http://www.w3.org/Graphics/SVG/1.1/DTD/svg11.dtd">
<!-- Generated by graphviz version 2.43.0 (0)
 -->
<!-- Title: fiftyone.devicedetection.examples.console.comparison.DetectionImplFiftyOneDegrees.FiftyOneSolution Pages: 1 -->
<svg width="789pt" height="127pt"
 viewBox="0.00 0.00 789.00 126.50" xmlns="http://www.w3.org/2000/svg" xmlns:xlink="http://www.w3.org/1999/xlink">
<g id="graph0" class="graph" transform="scale(1 1) rotate(0) translate(4 122.5)">
<title>fiftyone.devicedetection.examples.console.comparison.DetectionImplFiftyOneDegrees.FiftyOneSolution</title>
<!-- Node3 -->
<g id="node1" class="node">
<title>Node3</title>
<g id="a_node1"><a xlink:title=" ">
<polygon fill="#bfbfbf" stroke="black" points="492,-39 492,-69 781,-69 781,-39 492,-39"/>
<text text-anchor="start" x="500" y="-57" font-family="Helvetica,sans-Serif" font-size="10.00">fiftyone.devicedetection.examples.console.comparison.</text>
<text text-anchor="middle" x="636.5" y="-46" font-family="Helvetica,sans-Serif" font-size="10.00">DetectionImplFiftyOneDegrees.FiftyOneSolution</text>
</a>
</g>
</g>
<!-- Node4 -->
<g id="node2" class="node">
<title>Node4</title>
<g id="a_node2"><a xlink:href="interfacefiftyone_1_1devicedetection_1_1examples_1_1console_1_1comparison_1_1_detection_1_1_solution.html" target="_top" xlink:title="The thing that actually does the detection.">
<polygon fill="none" stroke="black" points="124,-88 124,-118 413,-118 413,-88 124,-88"/>
<text text-anchor="start" x="132" y="-106" font-family="Helvetica,sans-Serif" font-size="10.00">fiftyone.devicedetection.examples.console.comparison.</text>
<text text-anchor="middle" x="268.5" y="-95" font-family="Helvetica,sans-Serif" font-size="10.00">Detection.Solution</text>
</a>
</g>
</g>
<!-- Node4&#45;&gt;Node3 -->
<g id="edge1" class="edge">
<title>Node4&#45;&gt;Node3</title>
<path fill="none" stroke="midnightblue" d="M391.92,-86.61C434.4,-80.92 481.8,-74.58 523.41,-69.01"/>
<polygon fill="midnightblue" stroke="midnightblue" points="391.25,-83.17 381.8,-87.97 392.18,-90.11 391.25,-83.17"/>
</g>
<!-- Node5 -->
<g id="node3" class="node">
<title>Node5</title>
<g id="a_node3"><a xlink:title=" ">
<polygon fill="none" stroke="#bfbfbf" points="0,-93.5 0,-112.5 87,-112.5 87,-93.5 0,-93.5"/>
<text text-anchor="middle" x="43.5" y="-100.5" font-family="Helvetica,sans-Serif" font-size="10.00">AutoCloseable</text>
</a>
</g>
</g>
<!-- Node5&#45;&gt;Node4 -->
<g id="edge2" class="edge">
<title>Node5&#45;&gt;Node4</title>
<path fill="none" stroke="midnightblue" d="M97.4,-103C105.7,-103 114.6,-103 123.82,-103"/>
<polygon fill="midnightblue" stroke="midnightblue" points="97.23,-99.5 87.23,-103 97.23,-106.5 97.23,-99.5"/>
</g>
<!-- Node6 -->
<g id="node4" class="node">
<title>Node6</title>
<g id="a_node4"><a xlink:href="classfiftyone_1_1devicedetection_1_1examples_1_1console_1_1comparison_1_1_detection_impl_fifty_one_degrees_1_1_fifty_one_config.html" target="_top" xlink:title=" ">
<polygon fill="none" stroke="black" points="124,-39 124,-69 413,-69 413,-39 124,-39"/>
<text text-anchor="start" x="132" y="-57" font-family="Helvetica,sans-Serif" font-size="10.00">fiftyone.devicedetection.examples.console.comparison.</text>
<text text-anchor="middle" x="268.5" y="-46" font-family="Helvetica,sans-Serif" font-size="10.00">DetectionImplFiftyOneDegrees.FiftyOneConfig</text>
</a>
</g>
</g>
<!-- Node6&#45;&gt;Node3 -->
<g id="edge3" class="edge">
<title>Node6&#45;&gt;Node3</title>
<path fill="none" stroke="#9a32cd" stroke-dasharray="5,2" d="M423.14,-54C445.86,-54 469.2,-54 491.71,-54"/>
<polygon fill="#9a32cd" stroke="#9a32cd" points="423.1,-50.5 413.1,-54 423.1,-57.5 423.1,-50.5"/>
<text text-anchor="middle" x="452.5" y="-57" font-family="Helvetica,sans-Serif" font-size="10.00"> config</text>
</g>
<!-- Node7 -->
<g id="node5" class="node">
<title>Node7</title>
<g id="a_node5"><a xlink:title=" ">
<polygon fill="none" stroke="#bfbfbf" points="240.5,-0.5 240.5,-19.5 296.5,-19.5 296.5,-0.5 240.5,-0.5"/>
<text text-anchor="middle" x="268.5" y="-7.5" font-family="Helvetica,sans-Serif" font-size="10.00">Pipeline</text>
</a>
</g>
</g>
<!-- Node7&#45;&gt;Node3 -->
<g id="edge4" class="edge">
<title>Node7&#45;&gt;Node3</title>
<path fill="none" stroke="#9a32cd" stroke-dasharray="5,2" d="M306.84,-14.49C354.39,-20.21 438.95,-30.37 510.39,-38.96"/>
<polygon fill="#9a32cd" stroke="#9a32cd" points="307.06,-10.99 296.71,-13.27 306.22,-17.94 307.06,-10.99"/>
<text text-anchor="middle" x="452.5" y="-37" font-family="Helvetica,sans-Serif" font-size="10.00"> pipeline</text>
</g>
</g>
</svg>
