<?xml version="1.0" encoding="UTF-8" standalone="no"?>
<!DOCTYPE svg PUBLIC "-//W3C//DTD SVG 1.1//EN"
 "http://www.w3.org/Graphics/SVG/1.1/DTD/svg11.dtd">
<!-- Generated by graphviz version 2.43.0 (0)
 -->
<!-- Title: fiftyone.devicedetection.hash.engine.onpremise.interop.swig.MapStringStringSwig Pages: 1 -->
<svg width="325pt" height="106pt"
 viewBox="0.00 0.00 325.00 106.00" xmlns="http://www.w3.org/2000/svg" xmlns:xlink="http://www.w3.org/1999/xlink">
<g id="graph0" class="graph" transform="scale(1 1) rotate(0) translate(4 102)">
<title>fiftyone.devicedetection.hash.engine.onpremise.interop.swig.MapStringStringSwig</title>
<!-- Node5 -->
<g id="node1" class="node">
<title>Node5</title>
<g id="a_node1"><a xlink:title=" ">
<polygon fill="#bfbfbf" stroke="black" points="0,-0.5 0,-30.5 317,-30.5 317,-0.5 0,-0.5"/>
<text text-anchor="start" x="8" y="-18.5" font-family="Helvetica,sans-Serif" font-size="10.00">fiftyone.devicedetection.hash.engine.onpremise.interop.swig.</text>
<text text-anchor="middle" x="158.5" y="-7.5" font-family="Helvetica,sans-Serif" font-size="10.00">MapStringStringSwig</text>
</a>
</g>
</g>
<!-- Node6 -->
<g id="node2" class="node">
<title>Node6</title>
<g id="a_node2"><a xlink:title=" ">
<polygon fill="none" stroke="#bfbfbf" points="33,-67.5 33,-97.5 160,-97.5 160,-67.5 33,-67.5"/>
<text text-anchor="start" x="41" y="-85.5" font-family="Helvetica,sans-Serif" font-size="10.00">java::util::AbstractMap</text>
<text text-anchor="middle" x="96.5" y="-74.5" font-family="Helvetica,sans-Serif" font-size="10.00">&lt; String, String &gt;</text>
</a>
</g>
</g>
<!-- Node6&#45;&gt;Node5 -->
<g id="edge1" class="edge">
<title>Node6&#45;&gt;Node5</title>
<path fill="none" stroke="midnightblue" d="M116.98,-60.02C126.22,-50.34 136.87,-39.17 145.07,-30.58"/>
<polygon fill="midnightblue" stroke="midnightblue" points="114.32,-57.74 109.95,-67.4 119.39,-62.58 114.32,-57.74"/>
</g>
<!-- Node7 -->
<g id="node3" class="node">
<title>Node7</title>
<g id="a_node3"><a xlink:title=" ">
<polygon fill="none" stroke="#bfbfbf" points="178,-73 178,-92 265,-92 265,-73 178,-73"/>
<text text-anchor="middle" x="221.5" y="-80" font-family="Helvetica,sans-Serif" font-size="10.00">AutoCloseable</text>
</a>
</g>
</g>
<!-- Node7&#45;&gt;Node5 -->
<g id="edge2" class="edge">
<title>Node7&#45;&gt;Node5</title>
<path fill="none" stroke="midnightblue" d="M205.8,-65.3C195.46,-54.63 182.05,-40.8 172.16,-30.59"/>
<polygon fill="midnightblue" stroke="midnightblue" points="203.53,-67.99 213,-72.73 208.56,-63.12 203.53,-67.99"/>
</g>
</g>
</svg>
