<?xml version="1.0" encoding="UTF-8" standalone="no"?>
<!DOCTYPE svg PUBLIC "-//W3C//DTD SVG 1.1//EN"
 "http://www.w3.org/Graphics/SVG/1.1/DTD/svg11.dtd">
<!-- Generated by graphviz version 2.43.0 (0)
 -->
<!-- Title: fiftyone.devicedetection.examples.console.UpdateDataFile Pages: 1 -->
<svg width="773pt" height="91pt"
 viewBox="0.00 0.00 773.00 91.00" xmlns="http://www.w3.org/2000/svg" xmlns:xlink="http://www.w3.org/1999/xlink">
<g id="graph0" class="graph" transform="scale(1 1) rotate(0) translate(4 87)">
<title>fiftyone.devicedetection.examples.console.UpdateDataFile</title>
<!-- Node1 -->
<g id="node1" class="node">
<title>Node1</title>
<g id="a_node1"><a xlink:title="This example illustrates various parameters that can be adjusted when using the on&#45;premise device det...">
<polygon fill="#bfbfbf" stroke="black" points="536,-12 536,-42 765,-42 765,-12 536,-12"/>
<text text-anchor="start" x="544" y="-30" font-family="Helvetica,sans-Serif" font-size="10.00">fiftyone.devicedetection.examples.console.</text>
<text text-anchor="middle" x="650.5" y="-19" font-family="Helvetica,sans-Serif" font-size="10.00">UpdateDataFile</text>
</a>
</g>
</g>
<!-- Node2 -->
<g id="node2" class="node">
<title>Node2</title>
<g id="a_node2"><a xlink:title=" ">
<polygon fill="none" stroke="#bfbfbf" points="174,-39 174,-69 403,-69 403,-39 174,-39"/>
<text text-anchor="start" x="182" y="-57" font-family="Helvetica,sans-Serif" font-size="10.00">fiftyone.devicedetection.examples.console.</text>
<text text-anchor="middle" x="288.5" y="-46" font-family="Helvetica,sans-Serif" font-size="10.00">UpdateDataFile.UpdateCompletionListener</text>
</a>
</g>
</g>
<!-- Node2&#45;&gt;Node1 -->
<g id="edge1" class="edge">
<title>Node2&#45;&gt;Node1</title>
<path fill="none" stroke="#9a32cd" stroke-dasharray="5,2" d="M413.4,-44.71C453.08,-41.73 496.8,-38.45 535.72,-35.53"/>
<polygon fill="#9a32cd" stroke="#9a32cd" points="413.12,-41.22 403.41,-45.46 413.64,-48.2 413.12,-41.22"/>
<text text-anchor="middle" x="469.5" y="-46" font-family="Helvetica,sans-Serif" font-size="10.00"> completionListener</text>
</g>
<!-- Node3 -->
<g id="node3" class="node">
<title>Node3</title>
<g id="a_node3"><a xlink:title=" ">
<polygon fill="none" stroke="#bfbfbf" points="0,-63.5 0,-82.5 113,-82.5 113,-63.5 0,-63.5"/>
<text text-anchor="middle" x="56.5" y="-70.5" font-family="Helvetica,sans-Serif" font-size="10.00">OnUpdateComplete</text>
</a>
</g>
</g>
<!-- Node3&#45;&gt;Node2 -->
<g id="edge2" class="edge">
<title>Node3&#45;&gt;Node2</title>
<path fill="none" stroke="midnightblue" d="M123.32,-67.56C139.11,-66.26 156.43,-64.83 173.71,-63.4"/>
<polygon fill="midnightblue" stroke="midnightblue" points="122.85,-64.09 113.18,-68.4 123.43,-71.07 122.85,-64.09"/>
</g>
<!-- Node4 -->
<g id="node4" class="node">
<title>Node4</title>
<g id="a_node4"><a xlink:title=" ">
<polygon fill="none" stroke="#bfbfbf" points="1,-25.5 1,-44.5 112,-44.5 112,-25.5 1,-25.5"/>
<text text-anchor="middle" x="56.5" y="-32.5" font-family="Helvetica,sans-Serif" font-size="10.00">DataUpdateService</text>
</a>
</g>
</g>
<!-- Node4&#45;&gt;Node2 -->
<g id="edge3" class="edge">
<title>Node4&#45;&gt;Node2</title>
<path fill="none" stroke="#9a32cd" stroke-dasharray="5,2" d="M122.3,-40.35C138.35,-41.68 156.02,-43.14 173.65,-44.59"/>
<polygon fill="#9a32cd" stroke="#9a32cd" points="122.26,-36.84 112.01,-39.5 121.68,-43.81 122.26,-36.84"/>
<text text-anchor="middle" x="143.5" y="-45" font-family="Helvetica,sans-Serif" font-size="10.00"> args</text>
</g>
<!-- Node5 -->
<g id="node5" class="node">
<title>Node5</title>
<g id="a_node5"><a xlink:title=" ">
<polygon fill="none" stroke="#bfbfbf" points="234.5,-0.5 234.5,-19.5 342.5,-19.5 342.5,-0.5 234.5,-0.5"/>
<text text-anchor="middle" x="288.5" y="-7.5" font-family="Helvetica,sans-Serif" font-size="10.00">SimpleDateFormat</text>
</a>
</g>
</g>
<!-- Node5&#45;&gt;Node1 -->
<g id="edge4" class="edge">
<title>Node5&#45;&gt;Node1</title>
<path fill="none" stroke="#9a32cd" stroke-dasharray="5,2" d="M352.73,-10.69C398.62,-11.43 462.19,-12.94 518,-16 523.83,-16.32 529.81,-16.69 535.84,-17.08"/>
<polygon fill="#9a32cd" stroke="#9a32cd" points="352.68,-7.19 342.63,-10.54 352.58,-14.19 352.68,-7.19"/>
<text text-anchor="middle" x="469.5" y="-19" font-family="Helvetica,sans-Serif" font-size="10.00"> simpleDateFormat</text>
</g>
</g>
</svg>
