<?xml version="1.0" encoding="UTF-8" standalone="no"?>
<!DOCTYPE svg PUBLIC "-//W3C//DTD SVG 1.1//EN"
 "http://www.w3.org/Graphics/SVG/1.1/DTD/svg11.dtd">
<!-- Generated by graphviz version 2.43.0 (0)
 -->
<!-- Title: fiftyone.devicedetection.shared.DeviceDataBaseOnPremise Pages: 1 -->
<svg width="477pt" height="252pt"
 viewBox="0.00 0.00 476.50 252.00" xmlns="http://www.w3.org/2000/svg" xmlns:xlink="http://www.w3.org/1999/xlink">
<g id="graph0" class="graph" transform="scale(1 1) rotate(0) translate(4 248)">
<title>fiftyone.devicedetection.shared.DeviceDataBaseOnPremise</title>
<!-- Node6 -->
<g id="node1" class="node">
<title>Node6</title>
<g id="a_node1"><a xlink:title="Base class used for all 51Degrees on&#45;premise device detection results classes.">
<polygon fill="#bfbfbf" stroke="black" points="160,-0.5 160,-30.5 333,-30.5 333,-0.5 160,-0.5"/>
<text text-anchor="start" x="168" y="-18.5" font-family="Helvetica,sans-Serif" font-size="10.00">fiftyone.devicedetection.shared.</text>
<text text-anchor="middle" x="246.5" y="-7.5" font-family="Helvetica,sans-Serif" font-size="10.00">DeviceDataBaseOnPremise</text>
</a>
</g>
</g>
<!-- Node7 -->
<g id="node2" class="node">
<title>Node7</title>
<g id="a_node2"><a xlink:href="classfiftyone_1_1devicedetection_1_1shared_1_1_device_data_base.html" target="_top" xlink:title=" ">
<polygon fill="none" stroke="black" points="68,-78.5 68,-108.5 241,-108.5 241,-78.5 68,-78.5"/>
<text text-anchor="start" x="76" y="-96.5" font-family="Helvetica,sans-Serif" font-size="10.00">fiftyone.devicedetection.shared.</text>
<text text-anchor="middle" x="154.5" y="-85.5" font-family="Helvetica,sans-Serif" font-size="10.00">DeviceDataBase</text>
</a>
</g>
</g>
<!-- Node7&#45;&gt;Node6 -->
<g id="edge1" class="edge">
<title>Node7&#45;&gt;Node6</title>
<path fill="none" stroke="midnightblue" d="M179.61,-71.75C195.38,-58.73 215.29,-42.28 229.27,-30.73"/>
<polygon fill="midnightblue" stroke="midnightblue" points="177.29,-69.14 171.8,-78.2 181.74,-74.53 177.29,-69.14"/>
</g>
<!-- Node8 -->
<g id="node3" class="node">
<title>Node8</title>
<g id="a_node3"><a xlink:title=" ">
<polygon fill="none" stroke="#bfbfbf" points="0,-162 0,-181 97,-181 97,-162 0,-162"/>
<text text-anchor="middle" x="48.5" y="-169" font-family="Helvetica,sans-Serif" font-size="10.00">AspectDataBase</text>
</a>
</g>
</g>
<!-- Node8&#45;&gt;Node7 -->
<g id="edge2" class="edge">
<title>Node8&#45;&gt;Node7</title>
<path fill="none" stroke="midnightblue" d="M68.95,-155.84C87.99,-142.19 116.19,-121.97 134.95,-108.52"/>
<polygon fill="midnightblue" stroke="midnightblue" points="66.75,-153.11 60.66,-161.78 70.83,-158.8 66.75,-153.11"/>
</g>
<!-- Node9 -->
<g id="node4" class="node">
<title>Node9</title>
<g id="a_node4"><a xlink:href="interfacefiftyone_1_1devicedetection_1_1shared_1_1_device_data.html" target="_top" xlink:title="Interface exposing typed accessors for properties related to a device returned by a device detection ...">
<polygon fill="none" stroke="black" points="115,-156.5 115,-186.5 288,-186.5 288,-156.5 115,-156.5"/>
<text text-anchor="start" x="123" y="-174.5" font-family="Helvetica,sans-Serif" font-size="10.00">fiftyone.devicedetection.shared.</text>
<text text-anchor="middle" x="201.5" y="-163.5" font-family="Helvetica,sans-Serif" font-size="10.00">DeviceData</text>
</a>
</g>
</g>
<!-- Node9&#45;&gt;Node7 -->
<g id="edge3" class="edge">
<title>Node9&#45;&gt;Node7</title>
<path fill="none" stroke="midnightblue" d="M187.32,-147.57C179.51,-134.94 170.05,-119.65 163.3,-108.73"/>
<polygon fill="midnightblue" stroke="midnightblue" points="184.42,-149.54 192.66,-156.2 190.38,-145.86 184.42,-149.54"/>
</g>
<!-- Node10 -->
<g id="node5" class="node">
<title>Node10</title>
<g id="a_node5"><a xlink:title=" ">
<polygon fill="none" stroke="#bfbfbf" points="165,-224.5 165,-243.5 238,-243.5 238,-224.5 165,-224.5"/>
<text text-anchor="middle" x="201.5" y="-231.5" font-family="Helvetica,sans-Serif" font-size="10.00">AspectData</text>
</a>
</g>
</g>
<!-- Node10&#45;&gt;Node9 -->
<g id="edge4" class="edge">
<title>Node10&#45;&gt;Node9</title>
<path fill="none" stroke="midnightblue" d="M201.5,-214.22C201.5,-205.36 201.5,-194.96 201.5,-186.76"/>
<polygon fill="midnightblue" stroke="midnightblue" points="198,-214.33 201.5,-224.33 205,-214.33 198,-214.33"/>
</g>
<!-- Node11 -->
<g id="node6" class="node">
<title>Node11</title>
<g id="a_node6"><a xlink:title=" ">
<polygon fill="none" stroke="#bfbfbf" points="259.5,-84 259.5,-103 421.5,-103 421.5,-84 259.5,-84"/>
<text text-anchor="middle" x="340.5" y="-91" font-family="Helvetica,sans-Serif" font-size="10.00">Map&lt; Class&lt;?&gt;, Class&lt;?&gt; &gt;</text>
</a>
</g>
</g>
<!-- Node11&#45;&gt;Node6 -->
<g id="edge5" class="edge">
<title>Node11&#45;&gt;Node6</title>
<path fill="none" stroke="#9a32cd" stroke-dasharray="5,2" d="M321.68,-77.28C304.8,-63.64 280.24,-43.78 263.84,-30.52"/>
<polygon fill="#9a32cd" stroke="#9a32cd" points="319.74,-80.22 329.72,-83.78 324.14,-74.77 319.74,-80.22"/>
<text text-anchor="middle" x="337.5" y="-52" font-family="Helvetica,sans-Serif" font-size="10.00"> primitiveTypes</text>
</g>
<!-- Node12 -->
<g id="node7" class="node">
<title>Node12</title>
<g id="a_node7"><a xlink:title=" ">
<polygon fill="none" stroke="#bfbfbf" points="321.5,-162 321.5,-181 359.5,-181 359.5,-162 321.5,-162"/>
<text text-anchor="middle" x="340.5" y="-169" font-family="Helvetica,sans-Serif" font-size="10.00">Map</text>
</a>
</g>
</g>
<!-- Node12&#45;&gt;Node11 -->
<g id="edge6" class="edge">
<title>Node12&#45;&gt;Node11</title>
<path fill="none" stroke="orange" stroke-dasharray="5,2" d="M340.5,-151.72C340.5,-136.2 340.5,-114.86 340.5,-103.12"/>
<polygon fill="orange" stroke="orange" points="337,-151.78 340.5,-161.78 344,-151.78 337,-151.78"/>
<text text-anchor="middle" x="404.5" y="-130" font-family="Helvetica,sans-Serif" font-size="10.00"> &lt; Class&lt;?&gt;, Class&lt;?&gt; &gt;</text>
</g>
</g>
</svg>
