<?xml version="1.0" encoding="UTF-8" standalone="no"?>
<!DOCTYPE svg PUBLIC "-//W3C//DTD SVG 1.1//EN"
 "http://www.w3.org/Graphics/SVG/1.1/DTD/svg11.dtd">
<!-- Generated by graphviz version 2.43.0 (0)
 -->
<!-- Title: fiftyone.devicedetection.examples.console.comparison.Comparer Pages: 1 -->
<svg width="297pt" height="174pt"
 viewBox="0.00 0.00 297.00 174.00" xmlns="http://www.w3.org/2000/svg" xmlns:xlink="http://www.w3.org/1999/xlink">
<g id="graph0" class="graph" transform="scale(1 1) rotate(0) translate(4 170)">
<title>fiftyone.devicedetection.examples.console.comparison.Comparer</title>
<!-- Node1 -->
<g id="node1" class="node">
<title>Node1</title>
<g id="a_node1"><a xlink:title="Unlike other examples, use of this example requires a 51Degrees Enterprise data file,...">
<polygon fill="#bfbfbf" stroke="black" points="0,-0.5 0,-30.5 289,-30.5 289,-0.5 0,-0.5"/>
<text text-anchor="start" x="8" y="-18.5" font-family="Helvetica,sans-Serif" font-size="10.00">fiftyone.devicedetection.examples.console.comparison.</text>
<text text-anchor="middle" x="144.5" y="-7.5" font-family="Helvetica,sans-Serif" font-size="10.00">Comparer</text>
</a>
</g>
</g>
<!-- Node2 -->
<g id="node2" class="node">
<title>Node2</title>
<g id="a_node2"><a xlink:href="interfacefiftyone_1_1devicedetection_1_1examples_1_1console_1_1comparison_1_1_detection_1_1_solution.html" target="_top" xlink:title="The thing that actually does the detection.">
<polygon fill="none" stroke="black" points="0,-78.5 0,-108.5 289,-108.5 289,-78.5 0,-78.5"/>
<text text-anchor="start" x="8" y="-96.5" font-family="Helvetica,sans-Serif" font-size="10.00">fiftyone.devicedetection.examples.console.comparison.</text>
<text text-anchor="middle" x="144.5" y="-85.5" font-family="Helvetica,sans-Serif" font-size="10.00">Detection.Solution</text>
</a>
</g>
</g>
<!-- Node2&#45;&gt;Node1 -->
<g id="edge1" class="edge">
<title>Node2&#45;&gt;Node1</title>
<path fill="none" stroke="#9a32cd" stroke-dasharray="5,2" d="M144.5,-68.09C144.5,-55.76 144.5,-41.22 144.5,-30.73"/>
<polygon fill="#9a32cd" stroke="#9a32cd" points="141,-68.2 144.5,-78.2 148,-68.21 141,-68.2"/>
<text text-anchor="middle" x="198.5" y="-52" font-family="Helvetica,sans-Serif" font-size="10.00"> DEFAULT_SOLUTIONS</text>
</g>
<!-- Node3 -->
<g id="node3" class="node">
<title>Node3</title>
<g id="a_node3"><a xlink:title=" ">
<polygon fill="none" stroke="#bfbfbf" points="101,-146.5 101,-165.5 188,-165.5 188,-146.5 101,-146.5"/>
<text text-anchor="middle" x="144.5" y="-153.5" font-family="Helvetica,sans-Serif" font-size="10.00">AutoCloseable</text>
</a>
</g>
</g>
<!-- Node3&#45;&gt;Node2 -->
<g id="edge2" class="edge">
<title>Node3&#45;&gt;Node2</title>
<path fill="none" stroke="midnightblue" d="M144.5,-136.22C144.5,-127.36 144.5,-116.96 144.5,-108.76"/>
<polygon fill="midnightblue" stroke="midnightblue" points="141,-136.33 144.5,-146.33 148,-136.33 141,-136.33"/>
</g>
</g>
</svg>
