<?xml version="1.0" encoding="UTF-8" standalone="no"?>
<!DOCTYPE svg PUBLIC "-//W3C//DTD SVG 1.1//EN"
 "http://www.w3.org/Graphics/SVG/1.1/DTD/svg11.dtd">
<!-- Generated by graphviz version 2.43.0 (0)
 -->
<!-- Title: fiftyone.devicedetection.hash.engine.onpremise.flowelements.DeviceDataHashDefault Pages: 1 -->
<svg width="1476pt" height="122pt"
 viewBox="0.00 0.00 1476.00 121.50" xmlns="http://www.w3.org/2000/svg" xmlns:xlink="http://www.w3.org/1999/xlink">
<g id="graph0" class="graph" transform="scale(1 1) rotate(0) translate(4 117.5)">
<title>fiftyone.devicedetection.hash.engine.onpremise.flowelements.DeviceDataHashDefault</title>
<!-- Node8 -->
<g id="node1" class="node">
<title>Node8</title>
<g id="a_node1"><a xlink:title="Internal implementation of the DeviceDataHash interface.">
<polygon fill="#bfbfbf" stroke="black" points="1145,-39 1145,-69 1468,-69 1468,-39 1145,-39"/>
<text text-anchor="start" x="1153" y="-57" font-family="Helvetica,sans-Serif" font-size="10.00">fiftyone.devicedetection.hash.engine.onpremise.flowelements.</text>
<text text-anchor="middle" x="1306.5" y="-46" font-family="Helvetica,sans-Serif" font-size="10.00">DeviceDataHashDefault</text>
</a>
</g>
</g>
<!-- Node9 -->
<g id="node2" class="node">
<title>Node9</title>
<g id="a_node2"><a xlink:href="classfiftyone_1_1devicedetection_1_1shared_1_1_device_data_base_on_premise.html" target="_top" xlink:title="Base class used for all 51Degrees on&#45;premise device detection results classes.">
<polygon fill="none" stroke="black" points="935,-39 935,-69 1108,-69 1108,-39 935,-39"/>
<text text-anchor="start" x="943" y="-57" font-family="Helvetica,sans-Serif" font-size="10.00">fiftyone.devicedetection.shared.</text>
<text text-anchor="middle" x="1021.5" y="-46" font-family="Helvetica,sans-Serif" font-size="10.00">DeviceDataBaseOnPremise</text>
</a>
</g>
</g>
<!-- Node9&#45;&gt;Node8 -->
<g id="edge1" class="edge">
<title>Node9&#45;&gt;Node8</title>
<path fill="none" stroke="midnightblue" d="M1118.27,-54C1126.97,-54 1135.93,-54 1145,-54"/>
<polygon fill="midnightblue" stroke="midnightblue" points="1118.18,-50.5 1108.18,-54 1118.18,-57.5 1118.18,-50.5"/>
</g>
<!-- Node10 -->
<g id="node3" class="node">
<title>Node10</title>
<g id="a_node3"><a xlink:href="classfiftyone_1_1devicedetection_1_1shared_1_1_device_data_base.html" target="_top" xlink:title=" ">
<polygon fill="none" stroke="black" points="447,-39 447,-69 620,-69 620,-39 447,-39"/>
<text text-anchor="start" x="455" y="-57" font-family="Helvetica,sans-Serif" font-size="10.00">fiftyone.devicedetection.shared.</text>
<text text-anchor="middle" x="533.5" y="-46" font-family="Helvetica,sans-Serif" font-size="10.00">DeviceDataBase</text>
</a>
</g>
</g>
<!-- Node10&#45;&gt;Node9 -->
<g id="edge2" class="edge">
<title>Node10&#45;&gt;Node9</title>
<path fill="none" stroke="midnightblue" d="M630.32,-54C718.96,-54 849.51,-54 934.77,-54"/>
<polygon fill="midnightblue" stroke="midnightblue" points="630.27,-50.5 620.27,-54 630.27,-57.5 630.27,-50.5"/>
</g>
<!-- Node11 -->
<g id="node4" class="node">
<title>Node11</title>
<g id="a_node4"><a xlink:title=" ">
<polygon fill="none" stroke="#bfbfbf" points="148,-38.5 148,-57.5 245,-57.5 245,-38.5 148,-38.5"/>
<text text-anchor="middle" x="196.5" y="-45.5" font-family="Helvetica,sans-Serif" font-size="10.00">AspectDataBase</text>
</a>
</g>
</g>
<!-- Node11&#45;&gt;Node10 -->
<g id="edge3" class="edge">
<title>Node11&#45;&gt;Node10</title>
<path fill="none" stroke="midnightblue" d="M255.34,-49.04C308.1,-49.98 386.76,-51.39 446.82,-52.47"/>
<polygon fill="midnightblue" stroke="midnightblue" points="255.2,-45.53 245.14,-48.85 255.08,-52.53 255.2,-45.53"/>
</g>
<!-- Node12 -->
<g id="node5" class="node">
<title>Node12</title>
<g id="a_node5"><a xlink:href="interfacefiftyone_1_1devicedetection_1_1shared_1_1_device_data.html" target="_top" xlink:title="Interface exposing typed accessors for properties related to a device returned by a device detection ...">
<polygon fill="none" stroke="black" points="110,-80 110,-110 283,-110 283,-80 110,-80"/>
<text text-anchor="start" x="118" y="-98" font-family="Helvetica,sans-Serif" font-size="10.00">fiftyone.devicedetection.shared.</text>
<text text-anchor="middle" x="196.5" y="-87" font-family="Helvetica,sans-Serif" font-size="10.00">DeviceData</text>
</a>
</g>
</g>
<!-- Node12&#45;&gt;Node10 -->
<g id="edge4" class="edge">
<title>Node12&#45;&gt;Node10</title>
<path fill="none" stroke="midnightblue" d="M293.5,-83.25C341.88,-77.33 400.05,-70.21 446.89,-64.48"/>
<polygon fill="midnightblue" stroke="midnightblue" points="292.84,-79.81 283.34,-84.49 293.69,-86.75 292.84,-79.81"/>
</g>
<!-- Node16 -->
<g id="node9" class="node">
<title>Node16</title>
<g id="a_node9"><a xlink:href="interfacefiftyone_1_1devicedetection_1_1hash_1_1engine_1_1onpremise_1_1data_1_1_device_data_hash.html" target="_top" xlink:title="Hash specific interface for DeviceData.">
<polygon fill="none" stroke="black" points="638,-83 638,-113 917,-113 917,-83 638,-83"/>
<text text-anchor="start" x="646" y="-101" font-family="Helvetica,sans-Serif" font-size="10.00">fiftyone.devicedetection.hash.engine.onpremise.data.</text>
<text text-anchor="middle" x="777.5" y="-90" font-family="Helvetica,sans-Serif" font-size="10.00">DeviceDataHash</text>
</a>
</g>
</g>
<!-- Node12&#45;&gt;Node16 -->
<g id="edge9" class="edge">
<title>Node12&#45;&gt;Node16</title>
<path fill="none" stroke="midnightblue" d="M293.31,-95.5C387.22,-95.98 531.37,-96.73 637.79,-97.28"/>
<polygon fill="midnightblue" stroke="midnightblue" points="293.26,-92 283.24,-95.44 293.23,-99 293.26,-92"/>
</g>
<!-- Node13 -->
<g id="node6" class="node">
<title>Node13</title>
<g id="a_node6"><a xlink:title=" ">
<polygon fill="none" stroke="#bfbfbf" points="0,-85.5 0,-104.5 73,-104.5 73,-85.5 0,-85.5"/>
<text text-anchor="middle" x="36.5" y="-92.5" font-family="Helvetica,sans-Serif" font-size="10.00">AspectData</text>
</a>
</g>
</g>
<!-- Node13&#45;&gt;Node12 -->
<g id="edge5" class="edge">
<title>Node13&#45;&gt;Node12</title>
<path fill="none" stroke="midnightblue" d="M83.56,-95C91.89,-95 100.82,-95 109.87,-95"/>
<polygon fill="midnightblue" stroke="midnightblue" points="83.35,-91.5 73.35,-95 83.35,-98.5 83.35,-91.5"/>
</g>
<!-- Node14 -->
<g id="node7" class="node">
<title>Node14</title>
<g id="a_node7"><a xlink:title=" ">
<polygon fill="none" stroke="#bfbfbf" points="452.5,-0.5 452.5,-19.5 614.5,-19.5 614.5,-0.5 452.5,-0.5"/>
<text text-anchor="middle" x="533.5" y="-7.5" font-family="Helvetica,sans-Serif" font-size="10.00">Map&lt; Class&lt;?&gt;, Class&lt;?&gt; &gt;</text>
</a>
</g>
</g>
<!-- Node14&#45;&gt;Node9 -->
<g id="edge6" class="edge">
<title>Node14&#45;&gt;Node9</title>
<path fill="none" stroke="#9a32cd" stroke-dasharray="5,2" d="M624.72,-15.1C702.34,-19.9 817.22,-28 917,-39 922.87,-39.65 928.91,-40.37 934.99,-41.14"/>
<polygon fill="#9a32cd" stroke="#9a32cd" points="624.7,-11.59 614.5,-14.47 624.27,-18.58 624.7,-11.59"/>
<text text-anchor="middle" x="777.5" y="-42" font-family="Helvetica,sans-Serif" font-size="10.00"> primitiveTypes</text>
</g>
<!-- Node15 -->
<g id="node8" class="node">
<title>Node15</title>
<g id="a_node8"><a xlink:title=" ">
<polygon fill="none" stroke="#bfbfbf" points="177.5,-0.5 177.5,-19.5 215.5,-19.5 215.5,-0.5 177.5,-0.5"/>
<text text-anchor="middle" x="196.5" y="-7.5" font-family="Helvetica,sans-Serif" font-size="10.00">Map</text>
</a>
</g>
</g>
<!-- Node15&#45;&gt;Node14 -->
<g id="edge7" class="edge">
<title>Node15&#45;&gt;Node14</title>
<path fill="none" stroke="orange" stroke-dasharray="5,2" d="M225.77,-10C275.25,-10 379.25,-10 452.39,-10"/>
<polygon fill="orange" stroke="orange" points="225.51,-6.5 215.51,-10 225.51,-13.5 225.51,-6.5"/>
<text text-anchor="middle" x="365" y="-13" font-family="Helvetica,sans-Serif" font-size="10.00"> &lt; Class&lt;?&gt;, Class&lt;?&gt; &gt;</text>
</g>
<!-- Node16&#45;&gt;Node8 -->
<g id="edge8" class="edge">
<title>Node16&#45;&gt;Node8</title>
<path fill="none" stroke="midnightblue" d="M927.44,-91.57C984.04,-88.56 1049.06,-84.42 1108,-79 1137.08,-76.32 1168.48,-72.69 1197.5,-69.02"/>
<polygon fill="midnightblue" stroke="midnightblue" points="927.14,-88.08 917.33,-92.1 927.5,-95.07 927.14,-88.08"/>
</g>
<!-- Node17 -->
<g id="node10" class="node">
<title>Node17</title>
<g id="a_node10"><a xlink:title=" ">
<polygon fill="none" stroke="#bfbfbf" points="978,-0.5 978,-19.5 1065,-19.5 1065,-0.5 978,-0.5"/>
<text text-anchor="middle" x="1021.5" y="-7.5" font-family="Helvetica,sans-Serif" font-size="10.00">AutoCloseable</text>
</a>
</g>
</g>
<!-- Node17&#45;&gt;Node8 -->
<g id="edge10" class="edge">
<title>Node17&#45;&gt;Node8</title>
<path fill="none" stroke="midnightblue" d="M1075.35,-18.22C1112.79,-24.04 1164.09,-32.01 1208.76,-38.96"/>
<polygon fill="midnightblue" stroke="midnightblue" points="1075.59,-14.71 1065.17,-16.63 1074.52,-21.63 1075.59,-14.71"/>
</g>
</g>
</svg>
