<?xml version="1.0" encoding="UTF-8" standalone="no"?>
<!DOCTYPE svg PUBLIC "-//W3C//DTD SVG 1.1//EN"
 "http://www.w3.org/Graphics/SVG/1.1/DTD/svg11.dtd">
<!-- Generated by graphviz version 2.43.0 (0)
 -->
<!-- Title: fiftyone.devicedetection.examples.console.comparison.DetectionImplBrowsCap.BrowsCapSolution Pages: 1 -->
<svg width="780pt" height="78pt"
 viewBox="0.00 0.00 780.00 77.50" xmlns="http://www.w3.org/2000/svg" xmlns:xlink="http://www.w3.org/1999/xlink">
<g id="graph0" class="graph" transform="scale(1 1) rotate(0) translate(4 73.5)">
<title>fiftyone.devicedetection.examples.console.comparison.DetectionImplBrowsCap.BrowsCapSolution</title>
<!-- Node3 -->
<g id="node1" class="node">
<title>Node3</title>
<g id="a_node1"><a xlink:title=" ">
<polygon fill="#bfbfbf" stroke="black" points="483,-8 483,-38 772,-38 772,-8 483,-8"/>
<text text-anchor="start" x="491" y="-26" font-family="Helvetica,sans-Serif" font-size="10.00">fiftyone.devicedetection.examples.console.comparison.</text>
<text text-anchor="middle" x="627.5" y="-15" font-family="Helvetica,sans-Serif" font-size="10.00">DetectionImplBrowsCap.BrowsCapSolution</text>
</a>
</g>
</g>
<!-- Node4 -->
<g id="node2" class="node">
<title>Node4</title>
<g id="a_node2"><a xlink:href="interfacefiftyone_1_1devicedetection_1_1examples_1_1console_1_1comparison_1_1_detection_1_1_solution.html" target="_top" xlink:title="The thing that actually does the detection.">
<polygon fill="none" stroke="black" points="124,-39 124,-69 413,-69 413,-39 124,-39"/>
<text text-anchor="start" x="132" y="-57" font-family="Helvetica,sans-Serif" font-size="10.00">fiftyone.devicedetection.examples.console.comparison.</text>
<text text-anchor="middle" x="268.5" y="-46" font-family="Helvetica,sans-Serif" font-size="10.00">Detection.Solution</text>
</a>
</g>
</g>
<!-- Node4&#45;&gt;Node3 -->
<g id="edge1" class="edge">
<title>Node4&#45;&gt;Node3</title>
<path fill="none" stroke="midnightblue" d="M423.16,-40.66C442.97,-38.94 463.2,-37.18 482.84,-35.47"/>
<polygon fill="midnightblue" stroke="midnightblue" points="422.82,-37.17 413.16,-41.53 423.43,-44.15 422.82,-37.17"/>
</g>
<!-- Node5 -->
<g id="node3" class="node">
<title>Node5</title>
<g id="a_node3"><a xlink:title=" ">
<polygon fill="none" stroke="#bfbfbf" points="0,-44.5 0,-63.5 87,-63.5 87,-44.5 0,-44.5"/>
<text text-anchor="middle" x="43.5" y="-51.5" font-family="Helvetica,sans-Serif" font-size="10.00">AutoCloseable</text>
</a>
</g>
</g>
<!-- Node5&#45;&gt;Node4 -->
<g id="edge2" class="edge">
<title>Node5&#45;&gt;Node4</title>
<path fill="none" stroke="midnightblue" d="M97.4,-54C105.7,-54 114.6,-54 123.82,-54"/>
<polygon fill="midnightblue" stroke="midnightblue" points="97.23,-50.5 87.23,-54 97.23,-57.5 97.23,-50.5"/>
</g>
<!-- Node6 -->
<g id="node4" class="node">
<title>Node6</title>
<g id="a_node4"><a xlink:title=" ">
<polygon fill="none" stroke="#bfbfbf" points="219.5,-0.5 219.5,-19.5 317.5,-19.5 317.5,-0.5 219.5,-0.5"/>
<text text-anchor="middle" x="268.5" y="-7.5" font-family="Helvetica,sans-Serif" font-size="10.00">UserAgentParser</text>
</a>
</g>
</g>
<!-- Node6&#45;&gt;Node3 -->
<g id="edge3" class="edge">
<title>Node6&#45;&gt;Node3</title>
<path fill="none" stroke="#9a32cd" stroke-dasharray="5,2" d="M327.71,-12.12C369.82,-13.65 428.63,-15.79 482.95,-17.77"/>
<polygon fill="#9a32cd" stroke="#9a32cd" points="327.77,-8.62 317.65,-11.75 327.51,-15.61 327.77,-8.62"/>
<text text-anchor="middle" x="448" y="-20" font-family="Helvetica,sans-Serif" font-size="10.00"> parser</text>
</g>
</g>
</svg>
