<?xml version="1.0" encoding="UTF-8" standalone="no"?>
<!DOCTYPE svg PUBLIC "-//W3C//DTD SVG 1.1//EN"
 "http://www.w3.org/Graphics/SVG/1.1/DTD/svg11.dtd">
<!-- Generated by graphviz version 2.43.0 (0)
 -->
<!-- Title: fiftyone.devicedetection.hash.engine.onpremise.interop.swig.EvidenceDeviceDetectionSwig Pages: 1 -->
<svg width="1194pt" height="78pt"
 viewBox="0.00 0.00 1194.00 77.50" xmlns="http://www.w3.org/2000/svg" xmlns:xlink="http://www.w3.org/1999/xlink">
<g id="graph0" class="graph" transform="scale(1 1) rotate(0) translate(4 73.5)">
<title>fiftyone.devicedetection.hash.engine.onpremise.interop.swig.EvidenceDeviceDetectionSwig</title>
<!-- Node0 -->
<g id="node1" class="node">
<title>Node0</title>
<g id="a_node1"><a xlink:title=" ">
<polygon fill="#bfbfbf" stroke="black" points="869,-17 869,-47 1186,-47 1186,-17 869,-17"/>
<text text-anchor="start" x="877" y="-35" font-family="Helvetica,sans-Serif" font-size="10.00">fiftyone.devicedetection.hash.engine.onpremise.interop.swig.</text>
<text text-anchor="middle" x="1027.5" y="-24" font-family="Helvetica,sans-Serif" font-size="10.00">EvidenceDeviceDetectionSwig</text>
</a>
</g>
</g>
<!-- Node1 -->
<g id="node2" class="node">
<title>Node1</title>
<g id="a_node2"><a xlink:href="classfiftyone_1_1devicedetection_1_1hash_1_1engine_1_1onpremise_1_1interop_1_1swig_1_1_evidence_base_swig.html" target="_top" xlink:title=" ">
<polygon fill="none" stroke="black" points="516,-17 516,-47 833,-47 833,-17 516,-17"/>
<text text-anchor="start" x="524" y="-35" font-family="Helvetica,sans-Serif" font-size="10.00">fiftyone.devicedetection.hash.engine.onpremise.interop.swig.</text>
<text text-anchor="middle" x="674.5" y="-24" font-family="Helvetica,sans-Serif" font-size="10.00">EvidenceBaseSwig</text>
</a>
</g>
</g>
<!-- Node1&#45;&gt;Node0 -->
<g id="edge1" class="edge">
<title>Node1&#45;&gt;Node0</title>
<path fill="none" stroke="midnightblue" d="M843.13,-32C851.74,-32 860.38,-32 868.96,-32"/>
<polygon fill="midnightblue" stroke="midnightblue" points="843.03,-28.5 833.03,-32 843.03,-35.5 843.03,-28.5"/>
</g>
<!-- Node2 -->
<g id="node3" class="node">
<title>Node2</title>
<g id="a_node3"><a xlink:href="classfiftyone_1_1devicedetection_1_1hash_1_1engine_1_1onpremise_1_1interop_1_1swig_1_1_map_string_string_swig.html" target="_top" xlink:title=" ">
<polygon fill="none" stroke="black" points="163,-39 163,-69 480,-69 480,-39 163,-39"/>
<text text-anchor="start" x="171" y="-57" font-family="Helvetica,sans-Serif" font-size="10.00">fiftyone.devicedetection.hash.engine.onpremise.interop.swig.</text>
<text text-anchor="middle" x="321.5" y="-46" font-family="Helvetica,sans-Serif" font-size="10.00">MapStringStringSwig</text>
</a>
</g>
</g>
<!-- Node2&#45;&gt;Node1 -->
<g id="edge2" class="edge">
<title>Node2&#45;&gt;Node1</title>
<path fill="none" stroke="midnightblue" d="M490.13,-43.49C498.74,-42.95 507.38,-42.41 515.96,-41.87"/>
<polygon fill="midnightblue" stroke="midnightblue" points="489.79,-40.01 480.03,-44.13 490.23,-46.99 489.79,-40.01"/>
</g>
<!-- Node3 -->
<g id="node4" class="node">
<title>Node3</title>
<g id="a_node4"><a xlink:title=" ">
<polygon fill="none" stroke="#bfbfbf" points="0,-39 0,-69 127,-69 127,-39 0,-39"/>
<text text-anchor="start" x="8" y="-57" font-family="Helvetica,sans-Serif" font-size="10.00">java::util::AbstractMap</text>
<text text-anchor="middle" x="63.5" y="-46" font-family="Helvetica,sans-Serif" font-size="10.00">&lt; String, String &gt;</text>
</a>
</g>
</g>
<!-- Node3&#45;&gt;Node2 -->
<g id="edge3" class="edge">
<title>Node3&#45;&gt;Node2</title>
<path fill="none" stroke="midnightblue" d="M137.24,-54C145.39,-54 153.9,-54 162.62,-54"/>
<polygon fill="midnightblue" stroke="midnightblue" points="137.12,-50.5 127.12,-54 137.12,-57.5 137.12,-50.5"/>
</g>
<!-- Node4 -->
<g id="node5" class="node">
<title>Node4</title>
<g id="a_node5"><a xlink:title=" ">
<polygon fill="none" stroke="#bfbfbf" points="20,-0.5 20,-19.5 107,-19.5 107,-0.5 20,-0.5"/>
<text text-anchor="middle" x="63.5" y="-7.5" font-family="Helvetica,sans-Serif" font-size="10.00">AutoCloseable</text>
</a>
</g>
</g>
<!-- Node4&#45;&gt;Node1 -->
<g id="edge5" class="edge">
<title>Node4&#45;&gt;Node1</title>
<path fill="none" stroke="midnightblue" d="M117.58,-11.92C205.49,-15.09 384.61,-21.56 515.86,-26.31"/>
<polygon fill="midnightblue" stroke="midnightblue" points="117.44,-8.41 107.32,-11.55 117.19,-15.41 117.44,-8.41"/>
</g>
<!-- Node4&#45;&gt;Node2 -->
<g id="edge4" class="edge">
<title>Node4&#45;&gt;Node2</title>
<path fill="none" stroke="midnightblue" d="M117.08,-19.04C150.51,-24.78 194.62,-32.36 233.21,-39"/>
<polygon fill="midnightblue" stroke="midnightblue" points="117.51,-15.56 107.06,-17.32 116.32,-22.46 117.51,-15.56"/>
</g>
</g>
</svg>
