<?xml version="1.0" encoding="UTF-8" standalone="no"?>
<!DOCTYPE svg PUBLIC "-//W3C//DTD SVG 1.1//EN"
 "http://www.w3.org/Graphics/SVG/1.1/DTD/svg11.dtd">
<!-- Generated by graphviz version 2.43.0 (0)
 -->
<!-- Title: fiftyone.devicedetection.shared.DeviceDataBase Pages: 1 -->
<svg width="1130pt" height="88pt"
 viewBox="0.00 0.00 1130.00 88.00" xmlns="http://www.w3.org/2000/svg" xmlns:xlink="http://www.w3.org/1999/xlink">
<g id="graph0" class="graph" transform="scale(1 1) rotate(0) translate(4 84)">
<title>fiftyone.devicedetection.shared.DeviceDataBase</title>
<!-- Node0 -->
<g id="node1" class="node">
<title>Node0</title>
<g id="a_node1"><a xlink:title=" ">
<polygon fill="#bfbfbf" stroke="black" points="318,-24.5 318,-54.5 491,-54.5 491,-24.5 318,-24.5"/>
<text text-anchor="start" x="326" y="-42.5" font-family="Helvetica,sans-Serif" font-size="10.00">fiftyone.devicedetection.shared.</text>
<text text-anchor="middle" x="404.5" y="-31.5" font-family="Helvetica,sans-Serif" font-size="10.00">DeviceDataBase</text>
</a>
</g>
</g>
<!-- Node4 -->
<g id="node5" class="node">
<title>Node4</title>
<g id="a_node5"><a xlink:href="classfiftyone_1_1devicedetection_1_1cloud_1_1flowelements_1_1_device_data_cloud_internal.html" target="_top" xlink:title="Internal implementation of the DeviceDataCloud interface.">
<polygon fill="none" stroke="black" points="527,-49.5 527,-79.5 763,-79.5 763,-49.5 527,-49.5"/>
<text text-anchor="start" x="535" y="-67.5" font-family="Helvetica,sans-Serif" font-size="10.00">fiftyone.devicedetection.cloud.flowelements.</text>
<text text-anchor="middle" x="645" y="-56.5" font-family="Helvetica,sans-Serif" font-size="10.00">DeviceDataCloudInternal</text>
</a>
</g>
</g>
<!-- Node0&#45;&gt;Node4 -->
<g id="edge4" class="edge">
<title>Node0&#45;&gt;Node4</title>
<path fill="none" stroke="midnightblue" d="M501.33,-49.54C509.65,-50.42 518.13,-51.31 526.6,-52.19"/>
<polygon fill="midnightblue" stroke="midnightblue" points="501.58,-46.05 491.27,-48.49 500.85,-53.01 501.58,-46.05"/>
</g>
<!-- Node5 -->
<g id="node6" class="node">
<title>Node5</title>
<g id="a_node6"><a xlink:href="classfiftyone_1_1devicedetection_1_1shared_1_1_device_data_base_on_premise.html" target="_top" xlink:title="Base class used for all 51Degrees on&#45;premise device detection results classes.">
<polygon fill="none" stroke="black" points="558.5,-0.5 558.5,-30.5 731.5,-30.5 731.5,-0.5 558.5,-0.5"/>
<text text-anchor="start" x="566.5" y="-18.5" font-family="Helvetica,sans-Serif" font-size="10.00">fiftyone.devicedetection.shared.</text>
<text text-anchor="middle" x="645" y="-7.5" font-family="Helvetica,sans-Serif" font-size="10.00">DeviceDataBaseOnPremise</text>
</a>
</g>
</g>
<!-- Node0&#45;&gt;Node5 -->
<g id="edge5" class="edge">
<title>Node0&#45;&gt;Node5</title>
<path fill="none" stroke="midnightblue" d="M501.32,-29.86C520.12,-27.97 539.74,-25.99 558.19,-24.13"/>
<polygon fill="midnightblue" stroke="midnightblue" points="500.87,-26.39 491.27,-30.87 501.57,-33.35 500.87,-26.39"/>
</g>
<!-- Node1 -->
<g id="node2" class="node">
<title>Node1</title>
<g id="a_node2"><a xlink:title=" ">
<polygon fill="none" stroke="#bfbfbf" points="147,-52 147,-71 244,-71 244,-52 147,-52"/>
<text text-anchor="middle" x="195.5" y="-59" font-family="Helvetica,sans-Serif" font-size="10.00">AspectDataBase</text>
</a>
</g>
</g>
<!-- Node1&#45;&gt;Node0 -->
<g id="edge1" class="edge">
<title>Node1&#45;&gt;Node0</title>
<path fill="none" stroke="midnightblue" d="M254.27,-55.36C273.96,-53.27 296.41,-50.88 317.81,-48.61"/>
<polygon fill="midnightblue" stroke="midnightblue" points="253.82,-51.89 244.25,-56.43 254.56,-58.85 253.82,-51.89"/>
</g>
<!-- Node2 -->
<g id="node3" class="node">
<title>Node2</title>
<g id="a_node3"><a xlink:href="interfacefiftyone_1_1devicedetection_1_1shared_1_1_device_data.html" target="_top" xlink:title="Interface exposing typed accessors for properties related to a device returned by a device detection ...">
<polygon fill="none" stroke="black" points="109,-2.5 109,-32.5 282,-32.5 282,-2.5 109,-2.5"/>
<text text-anchor="start" x="117" y="-20.5" font-family="Helvetica,sans-Serif" font-size="10.00">fiftyone.devicedetection.shared.</text>
<text text-anchor="middle" x="195.5" y="-9.5" font-family="Helvetica,sans-Serif" font-size="10.00">DeviceData</text>
</a>
</g>
</g>
<!-- Node2&#45;&gt;Node0 -->
<g id="edge2" class="edge">
<title>Node2&#45;&gt;Node0</title>
<path fill="none" stroke="midnightblue" d="M292.2,-27.67C300.76,-28.58 309.4,-29.5 317.88,-30.4"/>
<polygon fill="midnightblue" stroke="midnightblue" points="292.5,-24.18 282.19,-26.61 291.76,-31.14 292.5,-24.18"/>
</g>
<!-- Node3 -->
<g id="node4" class="node">
<title>Node3</title>
<g id="a_node4"><a xlink:title=" ">
<polygon fill="none" stroke="#bfbfbf" points="0,-8 0,-27 73,-27 73,-8 0,-8"/>
<text text-anchor="middle" x="36.5" y="-15" font-family="Helvetica,sans-Serif" font-size="10.00">AspectData</text>
</a>
</g>
</g>
<!-- Node3&#45;&gt;Node2 -->
<g id="edge3" class="edge">
<title>Node3&#45;&gt;Node2</title>
<path fill="none" stroke="midnightblue" d="M83.36,-17.5C91.42,-17.5 100.04,-17.5 108.78,-17.5"/>
<polygon fill="midnightblue" stroke="midnightblue" points="83.13,-14 73.13,-17.5 83.13,-21 83.13,-14"/>
</g>
<!-- Node6 -->
<g id="node7" class="node">
<title>Node6</title>
<g id="a_node7"><a xlink:href="classfiftyone_1_1devicedetection_1_1hash_1_1engine_1_1onpremise_1_1flowelements_1_1_device_data_hash_default.html" target="_top" xlink:title="Internal implementation of the DeviceDataHash interface.">
<polygon fill="none" stroke="black" points="799,-0.5 799,-30.5 1122,-30.5 1122,-0.5 799,-0.5"/>
<text text-anchor="start" x="807" y="-18.5" font-family="Helvetica,sans-Serif" font-size="10.00">fiftyone.devicedetection.hash.engine.onpremise.flowelements.</text>
<text text-anchor="middle" x="960.5" y="-7.5" font-family="Helvetica,sans-Serif" font-size="10.00">DeviceDataHashDefault</text>
</a>
</g>
</g>
<!-- Node5&#45;&gt;Node6 -->
<g id="edge6" class="edge">
<title>Node5&#45;&gt;Node6</title>
<path fill="none" stroke="midnightblue" d="M741.88,-15.5C760,-15.5 779.41,-15.5 798.89,-15.5"/>
<polygon fill="midnightblue" stroke="midnightblue" points="741.67,-12 731.67,-15.5 741.67,-19 741.67,-12"/>
</g>
</g>
</svg>
