<?xml version="1.0" encoding="UTF-8" standalone="no"?>
<!DOCTYPE svg PUBLIC "-//W3C//DTD SVG 1.1//EN"
 "http://www.w3.org/Graphics/SVG/1.1/DTD/svg11.dtd">
<!-- Generated by graphviz version 2.43.0 (0)
 -->
<!-- Title: fiftyone.devicedetection.hash.engine.onpremise.interop.swig.VectorStringSwig Pages: 1 -->
<svg width="395pt" height="106pt"
 viewBox="0.00 0.00 394.50 106.00" xmlns="http://www.w3.org/2000/svg" xmlns:xlink="http://www.w3.org/1999/xlink">
<g id="graph0" class="graph" transform="scale(1 1) rotate(0) translate(4 102)">
<title>fiftyone.devicedetection.hash.engine.onpremise.interop.swig.VectorStringSwig</title>
<!-- Node4 -->
<g id="node1" class="node">
<title>Node4</title>
<g id="a_node1"><a xlink:title=" ">
<polygon fill="#bfbfbf" stroke="black" points="26,-0.5 26,-30.5 343,-30.5 343,-0.5 26,-0.5"/>
<text text-anchor="start" x="34" y="-18.5" font-family="Helvetica,sans-Serif" font-size="10.00">fiftyone.devicedetection.hash.engine.onpremise.interop.swig.</text>
<text text-anchor="middle" x="184.5" y="-7.5" font-family="Helvetica,sans-Serif" font-size="10.00">VectorStringSwig</text>
</a>
</g>
</g>
<!-- Node5 -->
<g id="node2" class="node">
<title>Node5</title>
<g id="a_node2"><a xlink:title=" ">
<polygon fill="none" stroke="#bfbfbf" points="0,-67.5 0,-97.5 123,-97.5 123,-67.5 0,-67.5"/>
<text text-anchor="start" x="8" y="-85.5" font-family="Helvetica,sans-Serif" font-size="10.00">java::util::AbstractList</text>
<text text-anchor="middle" x="61.5" y="-74.5" font-family="Helvetica,sans-Serif" font-size="10.00">&lt; String &gt;</text>
</a>
</g>
</g>
<!-- Node5&#45;&gt;Node4 -->
<g id="edge1" class="edge">
<title>Node5&#45;&gt;Node4</title>
<path fill="none" stroke="midnightblue" d="M97.05,-62.71C116.45,-52.46 140.06,-39.98 157.86,-30.58"/>
<polygon fill="midnightblue" stroke="midnightblue" points="95.4,-59.63 88.19,-67.4 98.67,-65.82 95.4,-59.63"/>
</g>
<!-- Node6 -->
<g id="node3" class="node">
<title>Node6</title>
<g id="a_node3"><a xlink:title=" ">
<polygon fill="none" stroke="#bfbfbf" points="141,-73 141,-92 228,-92 228,-73 141,-73"/>
<text text-anchor="middle" x="184.5" y="-80" font-family="Helvetica,sans-Serif" font-size="10.00">AutoCloseable</text>
</a>
</g>
</g>
<!-- Node6&#45;&gt;Node4 -->
<g id="edge2" class="edge">
<title>Node6&#45;&gt;Node4</title>
<path fill="none" stroke="midnightblue" d="M184.5,-62.41C184.5,-52.22 184.5,-39.9 184.5,-30.59"/>
<polygon fill="midnightblue" stroke="midnightblue" points="181,-62.73 184.5,-72.73 188,-62.73 181,-62.73"/>
</g>
<!-- Node7 -->
<g id="node4" class="node">
<title>Node7</title>
<g id="a_node4"><a xlink:title=" ">
<polygon fill="none" stroke="#bfbfbf" points="246.5,-73 246.5,-92 386.5,-92 386.5,-73 246.5,-73"/>
<text text-anchor="middle" x="316.5" y="-80" font-family="Helvetica,sans-Serif" font-size="10.00">java::util::RandomAccess</text>
</a>
</g>
</g>
<!-- Node7&#45;&gt;Node4 -->
<g id="edge3" class="edge">
<title>Node7&#45;&gt;Node4</title>
<path fill="none" stroke="midnightblue" d="M289.78,-68.34C267.56,-57.4 236,-41.86 213.24,-30.65"/>
<polygon fill="midnightblue" stroke="midnightblue" points="288.45,-71.59 298.97,-72.87 291.55,-65.31 288.45,-71.59"/>
</g>
</g>
</svg>
