<?xml version="1.0" encoding="UTF-8" standalone="no"?>
<!DOCTYPE svg PUBLIC "-//W3C//DTD SVG 1.1//EN"
 "http://www.w3.org/Graphics/SVG/1.1/DTD/svg11.dtd">
<!-- Generated by graphviz version 2.43.0 (0)
 -->
<!-- Title: fiftyone.devicedetection.cloud.flowelements.DeviceDataCloudInternal Pages: 1 -->
<svg width="789pt" height="88pt"
 viewBox="0.00 0.00 789.00 88.00" xmlns="http://www.w3.org/2000/svg" xmlns:xlink="http://www.w3.org/1999/xlink">
<g id="graph0" class="graph" transform="scale(1 1) rotate(0) translate(4 84)">
<title>fiftyone.devicedetection.cloud.flowelements.DeviceDataCloudInternal</title>
<!-- Node6 -->
<g id="node1" class="node">
<title>Node6</title>
<g id="a_node1"><a xlink:title="Internal implementation of the DeviceDataCloud interface.">
<polygon fill="#bfbfbf" stroke="black" points="545,-24.5 545,-54.5 781,-54.5 781,-24.5 545,-24.5"/>
<text text-anchor="start" x="553" y="-42.5" font-family="Helvetica,sans-Serif" font-size="10.00">fiftyone.devicedetection.cloud.flowelements.</text>
<text text-anchor="middle" x="663" y="-31.5" font-family="Helvetica,sans-Serif" font-size="10.00">DeviceDataCloudInternal</text>
</a>
</g>
</g>
<!-- Node7 -->
<g id="node2" class="node">
<title>Node7</title>
<g id="a_node2"><a xlink:href="classfiftyone_1_1devicedetection_1_1shared_1_1_device_data_base.html" target="_top" xlink:title=" ">
<polygon fill="none" stroke="black" points="327,-49.5 327,-79.5 500,-79.5 500,-49.5 327,-49.5"/>
<text text-anchor="start" x="335" y="-67.5" font-family="Helvetica,sans-Serif" font-size="10.00">fiftyone.devicedetection.shared.</text>
<text text-anchor="middle" x="413.5" y="-56.5" font-family="Helvetica,sans-Serif" font-size="10.00">DeviceDataBase</text>
</a>
</g>
</g>
<!-- Node7&#45;&gt;Node6 -->
<g id="edge1" class="edge">
<title>Node7&#45;&gt;Node6</title>
<path fill="none" stroke="midnightblue" d="M510.26,-54.83C521.51,-53.69 533.09,-52.52 544.6,-51.36"/>
<polygon fill="midnightblue" stroke="midnightblue" points="509.62,-51.37 500.02,-55.86 510.32,-58.34 509.62,-51.37"/>
</g>
<!-- Node8 -->
<g id="node3" class="node">
<title>Node8</title>
<g id="a_node3"><a xlink:title=" ">
<polygon fill="none" stroke="#bfbfbf" points="147,-55 147,-74 244,-74 244,-55 147,-55"/>
<text text-anchor="middle" x="195.5" y="-62" font-family="Helvetica,sans-Serif" font-size="10.00">AspectDataBase</text>
</a>
</g>
</g>
<!-- Node8&#45;&gt;Node7 -->
<g id="edge2" class="edge">
<title>Node8&#45;&gt;Node7</title>
<path fill="none" stroke="midnightblue" d="M254.42,-64.5C276.61,-64.5 302.43,-64.5 326.68,-64.5"/>
<polygon fill="midnightblue" stroke="midnightblue" points="254.17,-61 244.17,-64.5 254.17,-68 254.17,-61"/>
</g>
<!-- Node9 -->
<g id="node4" class="node">
<title>Node9</title>
<g id="a_node4"><a xlink:href="interfacefiftyone_1_1devicedetection_1_1shared_1_1_device_data.html" target="_top" xlink:title="Interface exposing typed accessors for properties related to a device returned by a device detection ...">
<polygon fill="none" stroke="black" points="109,-3.5 109,-33.5 282,-33.5 282,-3.5 109,-3.5"/>
<text text-anchor="start" x="117" y="-21.5" font-family="Helvetica,sans-Serif" font-size="10.00">fiftyone.devicedetection.shared.</text>
<text text-anchor="middle" x="195.5" y="-10.5" font-family="Helvetica,sans-Serif" font-size="10.00">DeviceData</text>
</a>
</g>
</g>
<!-- Node9&#45;&gt;Node7 -->
<g id="edge3" class="edge">
<title>Node9&#45;&gt;Node7</title>
<path fill="none" stroke="midnightblue" d="M277.21,-35.69C298.49,-40.22 321.29,-45.07 341.98,-49.48"/>
<polygon fill="midnightblue" stroke="midnightblue" points="277.74,-32.22 267.23,-33.56 276.28,-39.07 277.74,-32.22"/>
</g>
<!-- Node11 -->
<g id="node6" class="node">
<title>Node11</title>
<g id="a_node6"><a xlink:href="interfacefiftyone_1_1devicedetection_1_1cloud_1_1data_1_1_device_data_cloud.html" target="_top" xlink:title="Cloud specific interface for DeviceData.">
<polygon fill="none" stroke="black" points="318,-0.5 318,-30.5 509,-30.5 509,-0.5 318,-0.5"/>
<text text-anchor="start" x="326" y="-18.5" font-family="Helvetica,sans-Serif" font-size="10.00">fiftyone.devicedetection.cloud.data.</text>
<text text-anchor="middle" x="413.5" y="-7.5" font-family="Helvetica,sans-Serif" font-size="10.00">DeviceDataCloud</text>
</a>
</g>
</g>
<!-- Node9&#45;&gt;Node11 -->
<g id="edge6" class="edge">
<title>Node9&#45;&gt;Node11</title>
<path fill="none" stroke="midnightblue" d="M292.37,-17.17C300.77,-17.05 309.28,-16.93 317.67,-16.82"/>
<polygon fill="midnightblue" stroke="midnightblue" points="292.13,-13.67 282.18,-17.31 292.23,-20.67 292.13,-13.67"/>
</g>
<!-- Node10 -->
<g id="node5" class="node">
<title>Node10</title>
<g id="a_node5"><a xlink:title=" ">
<polygon fill="none" stroke="#bfbfbf" points="0,-9 0,-28 73,-28 73,-9 0,-9"/>
<text text-anchor="middle" x="36.5" y="-16" font-family="Helvetica,sans-Serif" font-size="10.00">AspectData</text>
</a>
</g>
</g>
<!-- Node10&#45;&gt;Node9 -->
<g id="edge4" class="edge">
<title>Node10&#45;&gt;Node9</title>
<path fill="none" stroke="midnightblue" d="M83.36,-18.5C91.42,-18.5 100.04,-18.5 108.78,-18.5"/>
<polygon fill="midnightblue" stroke="midnightblue" points="83.13,-15 73.13,-18.5 83.13,-22 83.13,-15"/>
</g>
<!-- Node11&#45;&gt;Node6 -->
<g id="edge5" class="edge">
<title>Node11&#45;&gt;Node6</title>
<path fill="none" stroke="midnightblue" d="M519.11,-25.64C527.67,-26.47 536.35,-27.32 544.99,-28.15"/>
<polygon fill="midnightblue" stroke="midnightblue" points="519.42,-22.16 509.13,-24.68 518.74,-29.13 519.42,-22.16"/>
</g>
</g>
</svg>
