<?xml version="1.0" encoding="UTF-8" standalone="no"?>
<!DOCTYPE svg PUBLIC "-//W3C//DTD SVG 1.1//EN"
 "http://www.w3.org/Graphics/SVG/1.1/DTD/svg11.dtd">
<!-- Generated by graphviz version 2.43.0 (0)
 -->
<!-- Title: fiftyone.devicedetection.shared.DeviceData Pages: 1 -->
<svg width="1191pt" height="137pt"
 viewBox="0.00 0.00 1191.00 137.00" xmlns="http://www.w3.org/2000/svg" xmlns:xlink="http://www.w3.org/1999/xlink">
<g id="graph0" class="graph" transform="scale(1 1) rotate(0) translate(4 133)">
<title>fiftyone.devicedetection.shared.DeviceData</title>
<!-- Node0 -->
<g id="node1" class="node">
<title>Node0</title>
<g id="a_node1"><a xlink:title="Interface exposing typed accessors for properties related to a device returned by a device detection ...">
<polygon fill="#bfbfbf" stroke="black" points="109,-50.5 109,-80.5 282,-80.5 282,-50.5 109,-50.5"/>
<text text-anchor="start" x="117" y="-68.5" font-family="Helvetica,sans-Serif" font-size="10.00">fiftyone.devicedetection.shared.</text>
<text text-anchor="middle" x="195.5" y="-57.5" font-family="Helvetica,sans-Serif" font-size="10.00">DeviceData</text>
</a>
</g>
</g>
<!-- Node2 -->
<g id="node3" class="node">
<title>Node2</title>
<g id="a_node3"><a xlink:href="interfacefiftyone_1_1devicedetection_1_1cloud_1_1data_1_1_device_data_cloud.html" target="_top" xlink:title="Cloud specific interface for DeviceData.">
<polygon fill="none" stroke="black" points="318,-50.5 318,-80.5 509,-80.5 509,-50.5 318,-50.5"/>
<text text-anchor="start" x="326" y="-68.5" font-family="Helvetica,sans-Serif" font-size="10.00">fiftyone.devicedetection.cloud.data.</text>
<text text-anchor="middle" x="413.5" y="-57.5" font-family="Helvetica,sans-Serif" font-size="10.00">DeviceDataCloud</text>
</a>
</g>
</g>
<!-- Node0&#45;&gt;Node2 -->
<g id="edge2" class="edge">
<title>Node0&#45;&gt;Node2</title>
<path fill="none" stroke="midnightblue" d="M292.37,-65.5C300.77,-65.5 309.28,-65.5 317.67,-65.5"/>
<polygon fill="midnightblue" stroke="midnightblue" points="292.18,-62 282.18,-65.5 292.18,-69 292.18,-62"/>
</g>
<!-- Node4 -->
<g id="node5" class="node">
<title>Node4</title>
<g id="a_node5"><a xlink:href="interfacefiftyone_1_1devicedetection_1_1hash_1_1engine_1_1onpremise_1_1data_1_1_device_data_hash.html" target="_top" xlink:title="Hash specific interface for DeviceData.">
<polygon fill="none" stroke="black" points="545,-98.5 545,-128.5 824,-128.5 824,-98.5 545,-98.5"/>
<text text-anchor="start" x="553" y="-116.5" font-family="Helvetica,sans-Serif" font-size="10.00">fiftyone.devicedetection.hash.engine.onpremise.data.</text>
<text text-anchor="middle" x="684.5" y="-105.5" font-family="Helvetica,sans-Serif" font-size="10.00">DeviceDataHash</text>
</a>
</g>
</g>
<!-- Node0&#45;&gt;Node4 -->
<g id="edge4" class="edge">
<title>Node0&#45;&gt;Node4</title>
<path fill="none" stroke="midnightblue" d="M274.28,-82.41C288.76,-85.12 303.8,-87.64 318,-89.5 392.56,-99.27 476.22,-105.14 544.67,-108.62"/>
<polygon fill="midnightblue" stroke="midnightblue" points="274.84,-78.96 264.36,-80.52 273.52,-85.83 274.84,-78.96"/>
</g>
<!-- Node6 -->
<g id="node7" class="node">
<title>Node6</title>
<g id="a_node7"><a xlink:href="classfiftyone_1_1devicedetection_1_1shared_1_1_device_data_base.html" target="_top" xlink:title=" ">
<polygon fill="none" stroke="black" points="327,-1.5 327,-31.5 500,-31.5 500,-1.5 327,-1.5"/>
<text text-anchor="start" x="335" y="-19.5" font-family="Helvetica,sans-Serif" font-size="10.00">fiftyone.devicedetection.shared.</text>
<text text-anchor="middle" x="413.5" y="-8.5" font-family="Helvetica,sans-Serif" font-size="10.00">DeviceDataBase</text>
</a>
</g>
</g>
<!-- Node0&#45;&gt;Node6 -->
<g id="edge6" class="edge">
<title>Node0&#45;&gt;Node6</title>
<path fill="none" stroke="midnightblue" d="M272.58,-48.24C296.64,-42.78 323.04,-36.79 346.35,-31.51"/>
<polygon fill="midnightblue" stroke="midnightblue" points="271.75,-44.84 262.78,-50.47 273.3,-51.67 271.75,-44.84"/>
</g>
<!-- Node1 -->
<g id="node2" class="node">
<title>Node1</title>
<g id="a_node2"><a xlink:title=" ">
<polygon fill="none" stroke="#bfbfbf" points="0,-56 0,-75 73,-75 73,-56 0,-56"/>
<text text-anchor="middle" x="36.5" y="-63" font-family="Helvetica,sans-Serif" font-size="10.00">AspectData</text>
</a>
</g>
</g>
<!-- Node1&#45;&gt;Node0 -->
<g id="edge1" class="edge">
<title>Node1&#45;&gt;Node0</title>
<path fill="none" stroke="midnightblue" d="M83.36,-65.5C91.42,-65.5 100.04,-65.5 108.78,-65.5"/>
<polygon fill="midnightblue" stroke="midnightblue" points="83.13,-62 73.13,-65.5 83.13,-69 83.13,-62"/>
</g>
<!-- Node3 -->
<g id="node4" class="node">
<title>Node3</title>
<g id="a_node4"><a xlink:href="classfiftyone_1_1devicedetection_1_1cloud_1_1flowelements_1_1_device_data_cloud_internal.html" target="_top" xlink:title="Internal implementation of the DeviceDataCloud interface.">
<polygon fill="none" stroke="black" points="566.5,-49.5 566.5,-79.5 802.5,-79.5 802.5,-49.5 566.5,-49.5"/>
<text text-anchor="start" x="574.5" y="-67.5" font-family="Helvetica,sans-Serif" font-size="10.00">fiftyone.devicedetection.cloud.flowelements.</text>
<text text-anchor="middle" x="684.5" y="-56.5" font-family="Helvetica,sans-Serif" font-size="10.00">DeviceDataCloudInternal</text>
</a>
</g>
</g>
<!-- Node2&#45;&gt;Node3 -->
<g id="edge3" class="edge">
<title>Node2&#45;&gt;Node3</title>
<path fill="none" stroke="midnightblue" d="M519.38,-65.11C534.8,-65.05 550.77,-64.99 566.41,-64.94"/>
<polygon fill="midnightblue" stroke="midnightblue" points="519.33,-61.61 509.34,-65.15 519.35,-68.61 519.33,-61.61"/>
</g>
<!-- Node5 -->
<g id="node6" class="node">
<title>Node5</title>
<g id="a_node6"><a xlink:href="classfiftyone_1_1devicedetection_1_1hash_1_1engine_1_1onpremise_1_1flowelements_1_1_device_data_hash_default.html" target="_top" xlink:title="Internal implementation of the DeviceDataHash interface.">
<polygon fill="none" stroke="black" points="860,-49.5 860,-79.5 1183,-79.5 1183,-49.5 860,-49.5"/>
<text text-anchor="start" x="868" y="-67.5" font-family="Helvetica,sans-Serif" font-size="10.00">fiftyone.devicedetection.hash.engine.onpremise.flowelements.</text>
<text text-anchor="middle" x="1021.5" y="-56.5" font-family="Helvetica,sans-Serif" font-size="10.00">DeviceDataHashDefault</text>
</a>
</g>
</g>
<!-- Node4&#45;&gt;Node5 -->
<g id="edge5" class="edge">
<title>Node4&#45;&gt;Node5</title>
<path fill="none" stroke="midnightblue" d="M798.53,-96.97C837.17,-91.32 880.14,-85.03 917.91,-79.51"/>
<polygon fill="midnightblue" stroke="midnightblue" points="797.68,-93.55 788.29,-98.47 798.69,-100.48 797.68,-93.55"/>
</g>
<!-- Node6&#45;&gt;Node3 -->
<g id="edge7" class="edge">
<title>Node6&#45;&gt;Node3</title>
<path fill="none" stroke="midnightblue" d="M508.77,-33.32C538.29,-38.59 570.66,-44.36 599.42,-49.5"/>
<polygon fill="midnightblue" stroke="midnightblue" points="509.33,-29.87 498.88,-31.56 508.1,-36.76 509.33,-29.87"/>
</g>
<!-- Node7 -->
<g id="node8" class="node">
<title>Node7</title>
<g id="a_node8"><a xlink:href="classfiftyone_1_1devicedetection_1_1shared_1_1_device_data_base_on_premise.html" target="_top" xlink:title="Base class used for all 51Degrees on&#45;premise device detection results classes.">
<polygon fill="none" stroke="black" points="598,-0.5 598,-30.5 771,-30.5 771,-0.5 598,-0.5"/>
<text text-anchor="start" x="606" y="-18.5" font-family="Helvetica,sans-Serif" font-size="10.00">fiftyone.devicedetection.shared.</text>
<text text-anchor="middle" x="684.5" y="-7.5" font-family="Helvetica,sans-Serif" font-size="10.00">DeviceDataBaseOnPremise</text>
</a>
</g>
</g>
<!-- Node6&#45;&gt;Node7 -->
<g id="edge8" class="edge">
<title>Node6&#45;&gt;Node7</title>
<path fill="none" stroke="midnightblue" d="M510.68,-16.14C539.03,-16.04 569.87,-15.92 597.54,-15.82"/>
<polygon fill="midnightblue" stroke="midnightblue" points="510.34,-12.64 500.35,-16.18 510.37,-19.64 510.34,-12.64"/>
</g>
<!-- Node7&#45;&gt;Node5 -->
<g id="edge9" class="edge">
<title>Node7&#45;&gt;Node5</title>
<path fill="none" stroke="midnightblue" d="M781.45,-29.53C824.13,-35.78 874.45,-43.14 917.89,-49.49"/>
<polygon fill="midnightblue" stroke="midnightblue" points="781.74,-26.04 771.34,-28.06 780.72,-32.97 781.74,-26.04"/>
</g>
</g>
</svg>
