<?xml version="1.0" encoding="UTF-8" standalone="no"?>
<!DOCTYPE svg PUBLIC "-//W3C//DTD SVG 1.1//EN"
 "http://www.w3.org/Graphics/SVG/1.1/DTD/svg11.dtd">
<!-- Generated by graphviz version 2.43.0 (0)
 -->
<!-- Title: fiftyone.devicedetection.cloud.data.MultiDeviceDataCloud Pages: 1 -->
<svg width="274pt" height="117pt"
 viewBox="0.00 0.00 273.50 117.00" xmlns="http://www.w3.org/2000/svg" xmlns:xlink="http://www.w3.org/1999/xlink">
<g id="graph0" class="graph" transform="scale(1 1) rotate(0) translate(4 113)">
<title>fiftyone.devicedetection.cloud.data.MultiDeviceDataCloud</title>
<!-- Node3 -->
<g id="node1" class="node">
<title>Node3</title>
<g id="a_node1"><a xlink:title="Encapsulates a list of DeviceData instances which can be returned by the 51Degrees cloud service when...">
<polygon fill="#bfbfbf" stroke="black" points="24,-0.5 24,-30.5 215,-30.5 215,-0.5 24,-0.5"/>
<text text-anchor="start" x="32" y="-18.5" font-family="Helvetica,sans-Serif" font-size="10.00">fiftyone.devicedetection.cloud.data.</text>
<text text-anchor="middle" x="119.5" y="-7.5" font-family="Helvetica,sans-Serif" font-size="10.00">MultiDeviceDataCloud</text>
</a>
</g>
</g>
<!-- Node4 -->
<g id="node2" class="node">
<title>Node4</title>
<g id="a_node2"><a xlink:title=" ">
<polygon fill="none" stroke="#bfbfbf" points="0,-78.5 0,-97.5 97,-97.5 97,-78.5 0,-78.5"/>
<text text-anchor="middle" x="48.5" y="-85.5" font-family="Helvetica,sans-Serif" font-size="10.00">AspectDataBase</text>
</a>
</g>
</g>
<!-- Node4&#45;&gt;Node3 -->
<g id="edge1" class="edge">
<title>Node4&#45;&gt;Node3</title>
<path fill="none" stroke="midnightblue" d="M64.52,-71.09C76.78,-58.91 93.54,-42.27 105.32,-30.58"/>
<polygon fill="midnightblue" stroke="midnightblue" points="61.84,-68.83 57.21,-78.36 66.77,-73.79 61.84,-68.83"/>
</g>
<!-- Node5 -->
<g id="node3" class="node">
<title>Node5</title>
<g id="a_node3"><a xlink:title=" ">
<polygon fill="none" stroke="#bfbfbf" points="115.5,-67.5 115.5,-108.5 265.5,-108.5 265.5,-67.5 115.5,-67.5"/>
<text text-anchor="start" x="123.5" y="-96.5" font-family="Helvetica,sans-Serif" font-size="10.00">fiftyone::pipeline</text>
<text text-anchor="start" x="123.5" y="-85.5" font-family="Helvetica,sans-Serif" font-size="10.00">::engines::data::MultiProfile</text>
<text text-anchor="middle" x="190.5" y="-74.5" font-family="Helvetica,sans-Serif" font-size="10.00">Data&lt; DeviceData &gt;</text>
</a>
</g>
</g>
<!-- Node5&#45;&gt;Node3 -->
<g id="edge2" class="edge">
<title>Node5&#45;&gt;Node3</title>
<path fill="none" stroke="midnightblue" d="M163.62,-60.31C153.56,-50.32 142.52,-39.35 133.99,-30.89"/>
<polygon fill="midnightblue" stroke="midnightblue" points="161.16,-62.8 170.72,-67.36 166.09,-57.83 161.16,-62.8"/>
</g>
</g>
</svg>
