<?xml version="1.0" encoding="UTF-8" standalone="no"?>
<!DOCTYPE svg PUBLIC "-//W3C//DTD SVG 1.1//EN"
 "http://www.w3.org/Graphics/SVG/1.1/DTD/svg11.dtd">
<!-- Generated by graphviz version 2.43.0 (0)
 -->
<!-- Title: fiftyone.devicedetection.examples.console.comparison.Detection.Properties.Base Pages: 1 -->
<svg width="947pt" height="186pt"
 viewBox="0.00 0.00 947.00 186.00" xmlns="http://www.w3.org/2000/svg" xmlns:xlink="http://www.w3.org/1999/xlink">
<g id="graph0" class="graph" transform="scale(1 1) rotate(0) translate(4 182)">
<title>fiftyone.devicedetection.examples.console.comparison.Detection.Properties.Base</title>
<!-- Node0 -->
<g id="node1" class="node">
<title>Node0</title>
<g id="a_node1"><a xlink:title=" ">
<polygon fill="#bfbfbf" stroke="black" points="325,-73.5 325,-103.5 614,-103.5 614,-73.5 325,-73.5"/>
<text text-anchor="start" x="333" y="-91.5" font-family="Helvetica,sans-Serif" font-size="10.00">fiftyone.devicedetection.examples.console.comparison.</text>
<text text-anchor="middle" x="469.5" y="-80.5" font-family="Helvetica,sans-Serif" font-size="10.00">Detection.Properties.Base</text>
</a>
</g>
</g>
<!-- Node2 -->
<g id="node3" class="node">
<title>Node2</title>
<g id="a_node3"><a xlink:href="classfiftyone_1_1devicedetection_1_1examples_1_1console_1_1comparison_1_1_detection_impl_brows_cap_1_1_brows_cap_properties.html" target="_top" xlink:title=" ">
<polygon fill="none" stroke="black" points="650,-147.5 650,-177.5 939,-177.5 939,-147.5 650,-147.5"/>
<text text-anchor="start" x="658" y="-165.5" font-family="Helvetica,sans-Serif" font-size="10.00">fiftyone.devicedetection.examples.console.comparison.</text>
<text text-anchor="middle" x="794.5" y="-154.5" font-family="Helvetica,sans-Serif" font-size="10.00">DetectionImplBrowsCap.BrowsCapProperties</text>
</a>
</g>
</g>
<!-- Node0&#45;&gt;Node2 -->
<g id="edge2" class="edge">
<title>Node0&#45;&gt;Node2</title>
<path fill="none" stroke="midnightblue" d="M529.29,-106.57C564.15,-116.86 609.33,-129.46 650,-138.5 664.55,-141.73 680.01,-144.75 695.2,-147.48"/>
<polygon fill="midnightblue" stroke="midnightblue" points="529.87,-103.09 519.29,-103.6 527.88,-109.8 529.87,-103.09"/>
</g>
<!-- Node3 -->
<g id="node4" class="node">
<title>Node3</title>
<g id="a_node4"><a xlink:href="classfiftyone_1_1devicedetection_1_1examples_1_1console_1_1comparison_1_1_detection_impl_device_14a499038d23bd9bd2df6ff4c84ed1a9.html" target="_top" xlink:title=" ">
<polygon fill="none" stroke="black" points="650,-98.5 650,-128.5 939,-128.5 939,-98.5 650,-98.5"/>
<text text-anchor="start" x="658" y="-116.5" font-family="Helvetica,sans-Serif" font-size="10.00">fiftyone.devicedetection.examples.console.comparison.</text>
<text text-anchor="middle" x="794.5" y="-105.5" font-family="Helvetica,sans-Serif" font-size="10.00">DetectionImplDeviceAtlas.DeviceAtlasProperties</text>
</a>
</g>
</g>
<!-- Node0&#45;&gt;Node3 -->
<g id="edge3" class="edge">
<title>Node0&#45;&gt;Node3</title>
<path fill="none" stroke="midnightblue" d="M624.1,-100.39C632.68,-101.05 641.28,-101.72 649.82,-102.38"/>
<polygon fill="midnightblue" stroke="midnightblue" points="624.29,-96.89 614.05,-99.61 623.75,-103.87 624.29,-96.89"/>
</g>
<!-- Node4 -->
<g id="node5" class="node">
<title>Node4</title>
<g id="a_node5"><a xlink:href="classfiftyone_1_1devicedetection_1_1examples_1_1console_1_1comparison_1_1_detection_impl_fifty_ofa40f9aee0c441f6c56f47484e599f2e.html" target="_top" xlink:title=" ">
<polygon fill="none" stroke="black" points="650,-49.5 650,-79.5 939,-79.5 939,-49.5 650,-49.5"/>
<text text-anchor="start" x="658" y="-67.5" font-family="Helvetica,sans-Serif" font-size="10.00">fiftyone.devicedetection.examples.console.comparison.</text>
<text text-anchor="middle" x="794.5" y="-56.5" font-family="Helvetica,sans-Serif" font-size="10.00">DetectionImplFiftyOneDegrees.FiftyOneProperties</text>
</a>
</g>
</g>
<!-- Node0&#45;&gt;Node4 -->
<g id="edge4" class="edge">
<title>Node0&#45;&gt;Node4</title>
<path fill="none" stroke="midnightblue" d="M624.1,-77.09C632.68,-76.45 641.28,-75.81 649.82,-75.18"/>
<polygon fill="midnightblue" stroke="midnightblue" points="623.77,-73.6 614.05,-77.83 624.29,-80.58 623.77,-73.6"/>
</g>
<!-- Node5 -->
<g id="node6" class="node">
<title>Node5</title>
<g id="a_node6"><a xlink:href="classfiftyone_1_1devicedetection_1_1examples_1_1console_1_1comparison_1_1_detection_impl_scientia_mobile_1_1_wurfl_properties.html" target="_top" xlink:title=" ">
<polygon fill="none" stroke="black" points="650,-0.5 650,-30.5 939,-30.5 939,-0.5 650,-0.5"/>
<text text-anchor="start" x="658" y="-18.5" font-family="Helvetica,sans-Serif" font-size="10.00">fiftyone.devicedetection.examples.console.comparison.</text>
<text text-anchor="middle" x="794.5" y="-7.5" font-family="Helvetica,sans-Serif" font-size="10.00">DetectionImplScientiaMobile.WurflProperties</text>
</a>
</g>
</g>
<!-- Node0&#45;&gt;Node5 -->
<g id="edge5" class="edge">
<title>Node0&#45;&gt;Node5</title>
<path fill="none" stroke="midnightblue" d="M530.43,-70.51C565.14,-60.51 609.8,-48.33 650,-39.5 664.68,-36.28 680.29,-33.26 695.6,-30.52"/>
<polygon fill="midnightblue" stroke="midnightblue" points="529.09,-67.26 520.46,-73.41 531.04,-73.98 529.09,-67.26"/>
</g>
<!-- Node1 -->
<g id="node2" class="node">
<title>Node1</title>
<g id="a_node2"><a xlink:href="interfacefiftyone_1_1devicedetection_1_1examples_1_1console_1_1comparison_1_1_detection_1_1_properties.html" target="_top" xlink:title="The results of a detection.">
<polygon fill="none" stroke="black" points="0,-73.5 0,-103.5 289,-103.5 289,-73.5 0,-73.5"/>
<text text-anchor="start" x="8" y="-91.5" font-family="Helvetica,sans-Serif" font-size="10.00">fiftyone.devicedetection.examples.console.comparison.</text>
<text text-anchor="middle" x="144.5" y="-80.5" font-family="Helvetica,sans-Serif" font-size="10.00">Detection.Properties</text>
</a>
</g>
</g>
<!-- Node1&#45;&gt;Node0 -->
<g id="edge1" class="edge">
<title>Node1&#45;&gt;Node0</title>
<path fill="none" stroke="midnightblue" d="M299.1,-88.5C307.68,-88.5 316.28,-88.5 324.82,-88.5"/>
<polygon fill="midnightblue" stroke="midnightblue" points="299.05,-85 289.05,-88.5 299.05,-92 299.05,-85"/>
</g>
</g>
</svg>
