<?xml version="1.0" encoding="UTF-8" standalone="no"?>
<!DOCTYPE svg PUBLIC "-//W3C//DTD SVG 1.1//EN"
 "http://www.w3.org/Graphics/SVG/1.1/DTD/svg11.dtd">
<!-- Generated by graphviz version 2.43.0 (0)
 -->
<!-- Title: fiftyone.devicedetection.examples.web.GettingStartedWebCloud Pages: 1 -->
<svg width="292pt" height="106pt"
 viewBox="0.00 0.00 292.00 106.00" xmlns="http://www.w3.org/2000/svg" xmlns:xlink="http://www.w3.org/1999/xlink">
<g id="graph0" class="graph" transform="scale(1 1) rotate(0) translate(4 102)">
<title>fiftyone.devicedetection.examples.web.GettingStartedWebCloud</title>
<!-- Node2 -->
<g id="node1" class="node">
<title>Node2</title>
<g id="a_node1"><a xlink:title="This is the getting started Web/Cloud example showing use of the 51Degrees supplied filter which auto...">
<polygon fill="#bfbfbf" stroke="black" points="9,-0.5 9,-30.5 221,-30.5 221,-0.5 9,-0.5"/>
<text text-anchor="start" x="17" y="-18.5" font-family="Helvetica,sans-Serif" font-size="10.00">fiftyone.devicedetection.examples.web.</text>
<text text-anchor="middle" x="115" y="-7.5" font-family="Helvetica,sans-Serif" font-size="10.00">GettingStartedWebCloud</text>
</a>
</g>
</g>
<!-- Node3 -->
<g id="node2" class="node">
<title>Node3</title>
<g id="a_node2"><a xlink:title=" ">
<polygon fill="none" stroke="#bfbfbf" points="0,-78.5 0,-97.5 72,-97.5 72,-78.5 0,-78.5"/>
<text text-anchor="middle" x="36" y="-85.5" font-family="Helvetica,sans-Serif" font-size="10.00">HttpServlet</text>
</a>
</g>
</g>
<!-- Node3&#45;&gt;Node2 -->
<g id="edge1" class="edge">
<title>Node3&#45;&gt;Node2</title>
<path fill="none" stroke="midnightblue" d="M53.44,-71.44C67.12,-59.23 85.99,-42.39 99.23,-30.58"/>
<polygon fill="midnightblue" stroke="midnightblue" points="50.82,-69.09 45.69,-78.36 55.48,-74.31 50.82,-69.09"/>
</g>
<!-- Node4 -->
<g id="node3" class="node">
<title>Node4</title>
<g id="a_node3"><a xlink:title=" ">
<polygon fill="none" stroke="#bfbfbf" points="90,-78.5 90,-97.5 140,-97.5 140,-78.5 90,-78.5"/>
<text text-anchor="middle" x="115" y="-85.5" font-family="Helvetica,sans-Serif" font-size="10.00">Logger</text>
</a>
</g>
</g>
<!-- Node4&#45;&gt;Node2 -->
<g id="edge2" class="edge">
<title>Node4&#45;&gt;Node2</title>
<path fill="none" stroke="#9a32cd" stroke-dasharray="5,2" d="M115,-68.24C115,-56.41 115,-41.38 115,-30.58"/>
<polygon fill="#9a32cd" stroke="#9a32cd" points="111.5,-68.36 115,-78.36 118.5,-68.36 111.5,-68.36"/>
<text text-anchor="middle" x="132" y="-52" font-family="Helvetica,sans-Serif" font-size="10.00"> logger</text>
</g>
<!-- Node5 -->
<g id="node4" class="node">
<title>Node5</title>
<g id="a_node4"><a xlink:title=" ">
<polygon fill="none" stroke="#bfbfbf" points="158,-78.5 158,-97.5 284,-97.5 284,-78.5 158,-78.5"/>
<text text-anchor="middle" x="221" y="-85.5" font-family="Helvetica,sans-Serif" font-size="10.00">FlowDataProviderCore</text>
</a>
</g>
</g>
<!-- Node5&#45;&gt;Node2 -->
<g id="edge3" class="edge">
<title>Node5&#45;&gt;Node2</title>
<path fill="none" stroke="#9a32cd" stroke-dasharray="5,2" d="M199.65,-72.8C181.17,-60.51 154.59,-42.83 136.16,-30.58"/>
<polygon fill="#9a32cd" stroke="#9a32cd" points="197.74,-75.73 208,-78.36 201.61,-69.9 197.74,-75.73"/>
<text text-anchor="middle" x="221" y="-52" font-family="Helvetica,sans-Serif" font-size="10.00"> flowDataProvider</text>
</g>
</g>
</svg>
