<?xml version="1.0" encoding="UTF-8" standalone="no"?>
<!DOCTYPE svg PUBLIC "-//W3C//DTD SVG 1.1//EN"
 "http://www.w3.org/Graphics/SVG/1.1/DTD/svg11.dtd">
<!-- Generated by graphviz version 2.43.0 (0)
 -->
<!-- Title: fiftyone.devicedetection.cloud.flowelements.DeviceDetectionCloudEngine Pages: 1 -->
<svg width="782pt" height="149pt"
 viewBox="0.00 0.00 782.00 149.00" xmlns="http://www.w3.org/2000/svg" xmlns:xlink="http://www.w3.org/1999/xlink">
<g id="graph0" class="graph" transform="scale(1 1) rotate(0) translate(4 145)">
<title>fiftyone.devicedetection.cloud.flowelements.DeviceDetectionCloudEngine</title>
<!-- Node2 -->
<g id="node1" class="node">
<title>Node2</title>
<g id="a_node1"><a xlink:title="Engine that takes the JSON response from the CloudRequestEngine and uses it populate a DeviceDataClou...">
<polygon fill="#bfbfbf" stroke="black" points="538,-44.5 538,-74.5 774,-74.5 774,-44.5 538,-44.5"/>
<text text-anchor="start" x="546" y="-62.5" font-family="Helvetica,sans-Serif" font-size="10.00">fiftyone.devicedetection.cloud.flowelements.</text>
<text text-anchor="middle" x="656" y="-51.5" font-family="Helvetica,sans-Serif" font-size="10.00">DeviceDetectionCloudEngine</text>
</a>
</g>
</g>
<!-- Node3 -->
<g id="node2" class="node">
<title>Node3</title>
<g id="a_node2"><a xlink:title=" ">
<polygon fill="none" stroke="#bfbfbf" points="218,-88.5 218,-140.5 399,-140.5 399,-88.5 218,-88.5"/>
<text text-anchor="start" x="226" y="-128.5" font-family="Helvetica,sans-Serif" font-size="10.00">fiftyone::pipeline</text>
<text text-anchor="start" x="226" y="-117.5" font-family="Helvetica,sans-Serif" font-size="10.00">::cloudrequestengine</text>
<text text-anchor="start" x="226" y="-106.5" font-family="Helvetica,sans-Serif" font-size="10.00">::flowelements::CloudAspect</text>
<text text-anchor="middle" x="308.5" y="-95.5" font-family="Helvetica,sans-Serif" font-size="10.00">EngineBase&lt; DeviceDataCloud &gt;</text>
</a>
</g>
</g>
<!-- Node3&#45;&gt;Node2 -->
<g id="edge1" class="edge">
<title>Node3&#45;&gt;Node2</title>
<path fill="none" stroke="midnightblue" d="M409.4,-98.6C457.08,-91.01 513.82,-81.97 560.75,-74.5"/>
<polygon fill="midnightblue" stroke="midnightblue" points="408.7,-95.16 399.37,-100.19 409.8,-102.08 408.7,-95.16"/>
</g>
<!-- Node4 -->
<g id="node3" class="node">
<title>Node4</title>
<g id="a_node3"><a xlink:title=" ">
<polygon fill="none" stroke="#bfbfbf" points="250,-50 250,-69 367,-69 367,-50 250,-50"/>
<text text-anchor="middle" x="308.5" y="-57" font-family="Helvetica,sans-Serif" font-size="10.00">CloudRequestEngine</text>
</a>
</g>
</g>
<!-- Node4&#45;&gt;Node2 -->
<g id="edge2" class="edge">
<title>Node4&#45;&gt;Node2</title>
<path fill="none" stroke="#9a32cd" stroke-dasharray="5,2" d="M377.4,-59.5C423.05,-59.5 484.39,-59.5 537.8,-59.5"/>
<polygon fill="#9a32cd" stroke="#9a32cd" points="377.33,-56 367.33,-59.5 377.33,-63 377.33,-56"/>
<text text-anchor="middle" x="468.5" y="-62.5" font-family="Helvetica,sans-Serif" font-size="10.00"> cloudRequestEngine</text>
</g>
<!-- Node5 -->
<g id="node4" class="node">
<title>Node5</title>
<g id="a_node4"><a xlink:title=" ">
<polygon fill="none" stroke="#bfbfbf" points="236.5,-0.5 236.5,-30.5 380.5,-30.5 380.5,-0.5 236.5,-0.5"/>
<text text-anchor="start" x="244.5" y="-18.5" font-family="Helvetica,sans-Serif" font-size="10.00">List&lt; AspectPropertyMeta</text>
<text text-anchor="middle" x="308.5" y="-7.5" font-family="Helvetica,sans-Serif" font-size="10.00">Data &gt;</text>
</a>
</g>
</g>
<!-- Node5&#45;&gt;Node2 -->
<g id="edge3" class="edge">
<title>Node5&#45;&gt;Node2</title>
<path fill="none" stroke="#9a32cd" stroke-dasharray="5,2" d="M390.69,-25.84C434.49,-31.42 489.32,-38.4 537.68,-44.56"/>
<polygon fill="#9a32cd" stroke="#9a32cd" points="391.03,-22.35 380.67,-24.56 390.15,-29.3 391.03,-22.35"/>
<text text-anchor="middle" x="468.5" y="-44.5" font-family="Helvetica,sans-Serif" font-size="10.00"> aspectProperties</text>
</g>
<!-- Node6 -->
<g id="node5" class="node">
<title>Node6</title>
<g id="a_node5"><a xlink:title=" ">
<polygon fill="none" stroke="#bfbfbf" points="0,-6 0,-25 34,-25 34,-6 0,-6"/>
<text text-anchor="middle" x="17" y="-13" font-family="Helvetica,sans-Serif" font-size="10.00">List</text>
</a>
</g>
</g>
<!-- Node6&#45;&gt;Node5 -->
<g id="edge4" class="edge">
<title>Node6&#45;&gt;Node5</title>
<path fill="none" stroke="orange" stroke-dasharray="5,2" d="M44.62,-15.5C87.74,-15.5 174.27,-15.5 236.28,-15.5"/>
<polygon fill="orange" stroke="orange" points="44.39,-12 34.39,-15.5 44.39,-19 44.39,-12"/>
<text text-anchor="middle" x="126" y="-18.5" font-family="Helvetica,sans-Serif" font-size="10.00"> &lt; AspectPropertyMetaData &gt;</text>
</g>
</g>
</svg>
