<?xml version="1.0" encoding="UTF-8" standalone="no"?>
<!DOCTYPE svg PUBLIC "-//W3C//DTD SVG 1.1//EN"
 "http://www.w3.org/Graphics/SVG/1.1/DTD/svg11.dtd">
<!-- Generated by graphviz version 2.43.0 (0)
 -->
<!-- Title: fiftyone.devicedetection.examples.console.PerformanceBenchmark Pages: 1 -->
<svg width="908pt" height="79pt"
 viewBox="0.00 0.00 908.00 78.50" xmlns="http://www.w3.org/2000/svg" xmlns:xlink="http://www.w3.org/1999/xlink">
<g id="graph0" class="graph" transform="scale(1 1) rotate(0) translate(4 74.5)">
<title>fiftyone.devicedetection.examples.console.PerformanceBenchmark</title>
<!-- Node1 -->
<g id="node1" class="node">
<title>Node1</title>
<g id="a_node1"><a xlink:title="The example illustrates the flexibility with which the 51Degrees pipeline can be configured to achiev...">
<polygon fill="#bfbfbf" stroke="black" points="671,-22.5 671,-52.5 900,-52.5 900,-22.5 671,-22.5"/>
<text text-anchor="start" x="679" y="-40.5" font-family="Helvetica,sans-Serif" font-size="10.00">fiftyone.devicedetection.examples.console.</text>
<text text-anchor="middle" x="785.5" y="-29.5" font-family="Helvetica,sans-Serif" font-size="10.00">PerformanceBenchmark</text>
</a>
</g>
</g>
<!-- Node2 -->
<g id="node2" class="node">
<title>Node2</title>
<g id="a_node2"><a xlink:title=" ">
<polygon fill="none" stroke="#bfbfbf" points="350.5,-51 350.5,-70 400.5,-70 400.5,-51 350.5,-51"/>
<text text-anchor="middle" x="375.5" y="-58" font-family="Helvetica,sans-Serif" font-size="10.00">Logger</text>
</a>
</g>
</g>
<!-- Node2&#45;&gt;Node1 -->
<g id="edge1" class="edge">
<title>Node2&#45;&gt;Node1</title>
<path fill="none" stroke="#9a32cd" stroke-dasharray="5,2" d="M411.02,-58.55C467.78,-55.35 583.26,-48.84 670.87,-43.91"/>
<polygon fill="#9a32cd" stroke="#9a32cd" points="410.59,-55.07 400.8,-59.13 410.98,-62.06 410.59,-55.07"/>
<text text-anchor="middle" x="589.5" y="-55.5" font-family="Helvetica,sans-Serif" font-size="10.00"> logger</text>
</g>
<!-- Node3 -->
<g id="node3" class="node">
<title>Node3</title>
<g id="a_node3"><a xlink:href="classfiftyone_1_1devicedetection_1_1examples_1_1console_1_1_performance_benchmark_1_1_performance_configuration.html" target="_top" xlink:title=" ">
<polygon fill="none" stroke="black" points="243,-0.5 243,-30.5 508,-30.5 508,-0.5 243,-0.5"/>
<text text-anchor="start" x="251" y="-18.5" font-family="Helvetica,sans-Serif" font-size="10.00">fiftyone.devicedetection.examples.console.</text>
<text text-anchor="middle" x="375.5" y="-7.5" font-family="Helvetica,sans-Serif" font-size="10.00">PerformanceBenchmark.PerformanceConfiguration</text>
</a>
</g>
</g>
<!-- Node3&#45;&gt;Node1 -->
<g id="edge2" class="edge">
<title>Node3&#45;&gt;Node1</title>
<path fill="none" stroke="#9a32cd" stroke-dasharray="5,2" d="M518.22,-11.81C561.54,-11.81 609.28,-12.95 653,-16.5 669.25,-17.82 686.52,-20 703.02,-22.48"/>
<polygon fill="#9a32cd" stroke="#9a32cd" points="518.17,-8.31 508.18,-11.83 518.19,-15.31 518.17,-8.31"/>
<text text-anchor="start" x="526" y="-30.5" font-family="Helvetica,sans-Serif" font-size="10.00"> DEFAULT_PERFORMANCE</text>
<text text-anchor="middle" x="589.5" y="-19.5" font-family="Helvetica,sans-Serif" font-size="10.00">_CONFIGURATIONS</text>
</g>
<!-- Node4 -->
<g id="node4" class="node">
<title>Node4</title>
<g id="a_node4"><a xlink:href="classfiftyone_1_1devicedetection_1_1shared_1_1_constants.html" target="_top" xlink:title=" ">
<polygon fill="none" stroke="black" points="0,-0.5 0,-30.5 173,-30.5 173,-0.5 0,-0.5"/>
<text text-anchor="start" x="8" y="-18.5" font-family="Helvetica,sans-Serif" font-size="10.00">fiftyone.devicedetection.shared.</text>
<text text-anchor="middle" x="86.5" y="-7.5" font-family="Helvetica,sans-Serif" font-size="10.00">Constants</text>
</a>
</g>
</g>
<!-- Node4&#45;&gt;Node3 -->
<g id="edge3" class="edge">
<title>Node4&#45;&gt;Node3</title>
<path fill="none" stroke="#9a32cd" stroke-dasharray="5,2" d="M183.36,-15.5C202.42,-15.5 222.74,-15.5 242.76,-15.5"/>
<polygon fill="#9a32cd" stroke="#9a32cd" points="183.22,-12 173.22,-15.5 183.22,-19 183.22,-12"/>
<text text-anchor="middle" x="208" y="-18.5" font-family="Helvetica,sans-Serif" font-size="10.00"> profile</text>
</g>
</g>
</svg>
