<?xml version="1.0" encoding="UTF-8" standalone="no"?>
<!DOCTYPE svg PUBLIC "-//W3C//DTD SVG 1.1//EN"
 "http://www.w3.org/Graphics/SVG/1.1/DTD/svg11.dtd">
<!-- Generated by graphviz version 2.43.0 (0)
 -->
<!-- Title: fiftyone.devicedetection.shared.DeviceDataBaseOnPremise Pages: 1 -->
<svg width="1067pt" height="78pt"
 viewBox="0.00 0.00 1067.00 77.50" xmlns="http://www.w3.org/2000/svg" xmlns:xlink="http://www.w3.org/1999/xlink">
<g id="graph0" class="graph" transform="scale(1 1) rotate(0) translate(4 73.5)">
<title>fiftyone.devicedetection.shared.DeviceDataBaseOnPremise</title>
<!-- Node0 -->
<g id="node1" class="node">
<title>Node0</title>
<g id="a_node1"><a xlink:title="Base class used for all 51Degrees on&#45;premise device detection results classes.">
<polygon fill="#bfbfbf" stroke="black" points="527,-22.5 527,-52.5 700,-52.5 700,-22.5 527,-22.5"/>
<text text-anchor="start" x="535" y="-40.5" font-family="Helvetica,sans-Serif" font-size="10.00">fiftyone.devicedetection.shared.</text>
<text text-anchor="middle" x="613.5" y="-29.5" font-family="Helvetica,sans-Serif" font-size="10.00">DeviceDataBaseOnPremise</text>
</a>
</g>
</g>
<!-- Node5 -->
<g id="node6" class="node">
<title>Node5</title>
<g id="a_node6"><a xlink:href="classfiftyone_1_1devicedetection_1_1hash_1_1engine_1_1onpremise_1_1flowelements_1_1_device_data_hash_default.html" target="_top" xlink:title="Internal implementation of the DeviceDataHash interface.">
<polygon fill="none" stroke="black" points="736,-22.5 736,-52.5 1059,-52.5 1059,-22.5 736,-22.5"/>
<text text-anchor="start" x="744" y="-40.5" font-family="Helvetica,sans-Serif" font-size="10.00">fiftyone.devicedetection.hash.engine.onpremise.flowelements.</text>
<text text-anchor="middle" x="897.5" y="-29.5" font-family="Helvetica,sans-Serif" font-size="10.00">DeviceDataHashDefault</text>
</a>
</g>
</g>
<!-- Node0&#45;&gt;Node5 -->
<g id="edge5" class="edge">
<title>Node0&#45;&gt;Node5</title>
<path fill="none" stroke="midnightblue" d="M710.3,-37.5C718.64,-37.5 727.21,-37.5 735.88,-37.5"/>
<polygon fill="midnightblue" stroke="midnightblue" points="710.26,-34 700.26,-37.5 710.26,-41 710.26,-34"/>
</g>
<!-- Node1 -->
<g id="node2" class="node">
<title>Node1</title>
<g id="a_node2"><a xlink:href="classfiftyone_1_1devicedetection_1_1shared_1_1_device_data_base.html" target="_top" xlink:title=" ">
<polygon fill="none" stroke="black" points="318,-22.5 318,-52.5 491,-52.5 491,-22.5 318,-22.5"/>
<text text-anchor="start" x="326" y="-40.5" font-family="Helvetica,sans-Serif" font-size="10.00">fiftyone.devicedetection.shared.</text>
<text text-anchor="middle" x="404.5" y="-29.5" font-family="Helvetica,sans-Serif" font-size="10.00">DeviceDataBase</text>
</a>
</g>
</g>
<!-- Node1&#45;&gt;Node0 -->
<g id="edge1" class="edge">
<title>Node1&#45;&gt;Node0</title>
<path fill="none" stroke="midnightblue" d="M501.2,-37.5C509.76,-37.5 518.4,-37.5 526.88,-37.5"/>
<polygon fill="midnightblue" stroke="midnightblue" points="501.19,-34 491.19,-37.5 501.19,-41 501.19,-34"/>
</g>
<!-- Node2 -->
<g id="node3" class="node">
<title>Node2</title>
<g id="a_node3"><a xlink:title=" ">
<polygon fill="none" stroke="#bfbfbf" points="147,-50 147,-69 244,-69 244,-50 147,-50"/>
<text text-anchor="middle" x="195.5" y="-57" font-family="Helvetica,sans-Serif" font-size="10.00">AspectDataBase</text>
</a>
</g>
</g>
<!-- Node2&#45;&gt;Node1 -->
<g id="edge2" class="edge">
<title>Node2&#45;&gt;Node1</title>
<path fill="none" stroke="midnightblue" d="M254.27,-53.36C273.96,-51.27 296.41,-48.88 317.81,-46.61"/>
<polygon fill="midnightblue" stroke="midnightblue" points="253.82,-49.89 244.25,-54.43 254.56,-56.85 253.82,-49.89"/>
</g>
<!-- Node3 -->
<g id="node4" class="node">
<title>Node3</title>
<g id="a_node4"><a xlink:href="interfacefiftyone_1_1devicedetection_1_1shared_1_1_device_data.html" target="_top" xlink:title="Interface exposing typed accessors for properties related to a device returned by a device detection ...">
<polygon fill="none" stroke="black" points="109,-0.5 109,-30.5 282,-30.5 282,-0.5 109,-0.5"/>
<text text-anchor="start" x="117" y="-18.5" font-family="Helvetica,sans-Serif" font-size="10.00">fiftyone.devicedetection.shared.</text>
<text text-anchor="middle" x="195.5" y="-7.5" font-family="Helvetica,sans-Serif" font-size="10.00">DeviceData</text>
</a>
</g>
</g>
<!-- Node3&#45;&gt;Node1 -->
<g id="edge3" class="edge">
<title>Node3&#45;&gt;Node1</title>
<path fill="none" stroke="midnightblue" d="M292.2,-25.67C300.76,-26.58 309.4,-27.5 317.88,-28.4"/>
<polygon fill="midnightblue" stroke="midnightblue" points="292.5,-22.18 282.19,-24.61 291.76,-29.14 292.5,-22.18"/>
</g>
<!-- Node4 -->
<g id="node5" class="node">
<title>Node4</title>
<g id="a_node5"><a xlink:title=" ">
<polygon fill="none" stroke="#bfbfbf" points="0,-6 0,-25 73,-25 73,-6 0,-6"/>
<text text-anchor="middle" x="36.5" y="-13" font-family="Helvetica,sans-Serif" font-size="10.00">AspectData</text>
</a>
</g>
</g>
<!-- Node4&#45;&gt;Node3 -->
<g id="edge4" class="edge">
<title>Node4&#45;&gt;Node3</title>
<path fill="none" stroke="midnightblue" d="M83.36,-15.5C91.42,-15.5 100.04,-15.5 108.78,-15.5"/>
<polygon fill="midnightblue" stroke="midnightblue" points="83.13,-12 73.13,-15.5 83.13,-19 83.13,-12"/>
</g>
</g>
</svg>
