<?xml version="1.0" encoding="UTF-8" standalone="no"?>
<!DOCTYPE svg PUBLIC "-//W3C//DTD SVG 1.1//EN"
 "http://www.w3.org/Graphics/SVG/1.1/DTD/svg11.dtd">
<!-- Generated by graphviz version 2.43.0 (0)
 -->
<!-- Title: fiftyone.devicedetection.examples.console.comparison.Detection.Solution Pages: 1 -->
<svg width="745pt" height="186pt"
 viewBox="0.00 0.00 745.00 186.00" xmlns="http://www.w3.org/2000/svg" xmlns:xlink="http://www.w3.org/1999/xlink">
<g id="graph0" class="graph" transform="scale(1 1) rotate(0) translate(4 182)">
<title>fiftyone.devicedetection.examples.console.comparison.Detection.Solution</title>
<!-- Node0 -->
<g id="node1" class="node">
<title>Node0</title>
<g id="a_node1"><a xlink:title="The thing that actually does the detection.">
<polygon fill="#bfbfbf" stroke="black" points="123,-73.5 123,-103.5 412,-103.5 412,-73.5 123,-73.5"/>
<text text-anchor="start" x="131" y="-91.5" font-family="Helvetica,sans-Serif" font-size="10.00">fiftyone.devicedetection.examples.console.comparison.</text>
<text text-anchor="middle" x="267.5" y="-80.5" font-family="Helvetica,sans-Serif" font-size="10.00">Detection.Solution</text>
</a>
</g>
</g>
<!-- Node2 -->
<g id="node3" class="node">
<title>Node2</title>
<g id="a_node3"><a xlink:href="classfiftyone_1_1devicedetection_1_1examples_1_1console_1_1comparison_1_1_detection_impl_brows_cap_1_1_brows_cap_solution.html" target="_top" xlink:title=" ">
<polygon fill="none" stroke="black" points="448,-147.5 448,-177.5 737,-177.5 737,-147.5 448,-147.5"/>
<text text-anchor="start" x="456" y="-165.5" font-family="Helvetica,sans-Serif" font-size="10.00">fiftyone.devicedetection.examples.console.comparison.</text>
<text text-anchor="middle" x="592.5" y="-154.5" font-family="Helvetica,sans-Serif" font-size="10.00">DetectionImplBrowsCap.BrowsCapSolution</text>
</a>
</g>
</g>
<!-- Node0&#45;&gt;Node2 -->
<g id="edge2" class="edge">
<title>Node0&#45;&gt;Node2</title>
<path fill="none" stroke="midnightblue" d="M327.29,-106.57C362.15,-116.86 407.33,-129.46 448,-138.5 462.55,-141.73 478.01,-144.75 493.2,-147.48"/>
<polygon fill="midnightblue" stroke="midnightblue" points="327.87,-103.09 317.29,-103.6 325.88,-109.8 327.87,-103.09"/>
</g>
<!-- Node3 -->
<g id="node4" class="node">
<title>Node3</title>
<g id="a_node4"><a xlink:href="classfiftyone_1_1devicedetection_1_1examples_1_1console_1_1comparison_1_1_detection_impl_device_atlas_1_1_device_atlas_solution.html" target="_top" xlink:title=" ">
<polygon fill="none" stroke="black" points="448,-98.5 448,-128.5 737,-128.5 737,-98.5 448,-98.5"/>
<text text-anchor="start" x="456" y="-116.5" font-family="Helvetica,sans-Serif" font-size="10.00">fiftyone.devicedetection.examples.console.comparison.</text>
<text text-anchor="middle" x="592.5" y="-105.5" font-family="Helvetica,sans-Serif" font-size="10.00">DetectionImplDeviceAtlas.DeviceAtlasSolution</text>
</a>
</g>
</g>
<!-- Node0&#45;&gt;Node3 -->
<g id="edge3" class="edge">
<title>Node0&#45;&gt;Node3</title>
<path fill="none" stroke="midnightblue" d="M422.1,-100.39C430.68,-101.05 439.28,-101.72 447.82,-102.38"/>
<polygon fill="midnightblue" stroke="midnightblue" points="422.29,-96.89 412.05,-99.61 421.75,-103.87 422.29,-96.89"/>
</g>
<!-- Node4 -->
<g id="node5" class="node">
<title>Node4</title>
<g id="a_node5"><a xlink:href="classfiftyone_1_1devicedetection_1_1examples_1_1console_1_1comparison_1_1_detection_impl_fifty_oaec7e5673b492c0ca2de7c83bd849836.html" target="_top" xlink:title=" ">
<polygon fill="none" stroke="black" points="448,-49.5 448,-79.5 737,-79.5 737,-49.5 448,-49.5"/>
<text text-anchor="start" x="456" y="-67.5" font-family="Helvetica,sans-Serif" font-size="10.00">fiftyone.devicedetection.examples.console.comparison.</text>
<text text-anchor="middle" x="592.5" y="-56.5" font-family="Helvetica,sans-Serif" font-size="10.00">DetectionImplFiftyOneDegrees.FiftyOneSolution</text>
</a>
</g>
</g>
<!-- Node0&#45;&gt;Node4 -->
<g id="edge4" class="edge">
<title>Node0&#45;&gt;Node4</title>
<path fill="none" stroke="midnightblue" d="M422.1,-77.09C430.68,-76.45 439.28,-75.81 447.82,-75.18"/>
<polygon fill="midnightblue" stroke="midnightblue" points="421.77,-73.6 412.05,-77.83 422.29,-80.58 421.77,-73.6"/>
</g>
<!-- Node5 -->
<g id="node6" class="node">
<title>Node5</title>
<g id="a_node6"><a xlink:href="classfiftyone_1_1devicedetection_1_1examples_1_1console_1_1comparison_1_1_detection_impl_scientia_mobile_1_1_wurfl_solution.html" target="_top" xlink:title=" ">
<polygon fill="none" stroke="black" points="448,-0.5 448,-30.5 737,-30.5 737,-0.5 448,-0.5"/>
<text text-anchor="start" x="456" y="-18.5" font-family="Helvetica,sans-Serif" font-size="10.00">fiftyone.devicedetection.examples.console.comparison.</text>
<text text-anchor="middle" x="592.5" y="-7.5" font-family="Helvetica,sans-Serif" font-size="10.00">DetectionImplScientiaMobile.WurflSolution</text>
</a>
</g>
</g>
<!-- Node0&#45;&gt;Node5 -->
<g id="edge5" class="edge">
<title>Node0&#45;&gt;Node5</title>
<path fill="none" stroke="midnightblue" d="M328.43,-70.51C363.14,-60.51 407.8,-48.33 448,-39.5 462.68,-36.28 478.29,-33.26 493.6,-30.52"/>
<polygon fill="midnightblue" stroke="midnightblue" points="327.09,-67.26 318.46,-73.41 329.04,-73.98 327.09,-67.26"/>
</g>
<!-- Node1 -->
<g id="node2" class="node">
<title>Node1</title>
<g id="a_node2"><a xlink:title=" ">
<polygon fill="none" stroke="#bfbfbf" points="0,-79 0,-98 87,-98 87,-79 0,-79"/>
<text text-anchor="middle" x="43.5" y="-86" font-family="Helvetica,sans-Serif" font-size="10.00">AutoCloseable</text>
</a>
</g>
</g>
<!-- Node1&#45;&gt;Node0 -->
<g id="edge1" class="edge">
<title>Node1&#45;&gt;Node0</title>
<path fill="none" stroke="midnightblue" d="M97.19,-88.5C105.17,-88.5 113.72,-88.5 122.57,-88.5"/>
<polygon fill="midnightblue" stroke="midnightblue" points="97.04,-85 87.04,-88.5 97.04,-92 97.04,-85"/>
</g>
</g>
</svg>
