<?xml version="1.0" encoding="UTF-8" standalone="no"?>
<!DOCTYPE svg PUBLIC "-//W3C//DTD SVG 1.1//EN"
 "http://www.w3.org/Graphics/SVG/1.1/DTD/svg11.dtd">
<!-- Generated by graphviz version 2.43.0 (0)
 -->
<!-- Title: fiftyone.devicedetection.cloud.data.DeviceDataCloud Pages: 1 -->
<svg width="199pt" height="162pt"
 viewBox="0.00 0.00 199.00 162.00" xmlns="http://www.w3.org/2000/svg" xmlns:xlink="http://www.w3.org/1999/xlink">
<g id="graph0" class="graph" transform="scale(1 1) rotate(0) translate(4 158)">
<title>fiftyone.devicedetection.cloud.data.DeviceDataCloud</title>
<!-- Node4 -->
<g id="node1" class="node">
<title>Node4</title>
<g id="a_node1"><a xlink:title="Cloud specific interface for DeviceData.">
<polygon fill="#bfbfbf" stroke="black" points="0,-0.5 0,-30.5 191,-30.5 191,-0.5 0,-0.5"/>
<text text-anchor="start" x="8" y="-18.5" font-family="Helvetica,sans-Serif" font-size="10.00">fiftyone.devicedetection.cloud.data.</text>
<text text-anchor="middle" x="95.5" y="-7.5" font-family="Helvetica,sans-Serif" font-size="10.00">DeviceDataCloud</text>
</a>
</g>
</g>
<!-- Node5 -->
<g id="node2" class="node">
<title>Node5</title>
<g id="a_node2"><a xlink:href="interfacefiftyone_1_1devicedetection_1_1shared_1_1_device_data.html" target="_top" xlink:title="Interface exposing typed accessors for properties related to a device returned by a device detection ...">
<polygon fill="none" stroke="black" points="9,-67.5 9,-97.5 182,-97.5 182,-67.5 9,-67.5"/>
<text text-anchor="start" x="17" y="-85.5" font-family="Helvetica,sans-Serif" font-size="10.00">fiftyone.devicedetection.shared.</text>
<text text-anchor="middle" x="95.5" y="-74.5" font-family="Helvetica,sans-Serif" font-size="10.00">DeviceData</text>
</a>
</g>
</g>
<!-- Node5&#45;&gt;Node4 -->
<g id="edge1" class="edge">
<title>Node5&#45;&gt;Node4</title>
<path fill="none" stroke="midnightblue" d="M95.5,-57.11C95.5,-48.15 95.5,-38.32 95.5,-30.58"/>
<polygon fill="midnightblue" stroke="midnightblue" points="92,-57.4 95.5,-67.4 99,-57.4 92,-57.4"/>
</g>
<!-- Node6 -->
<g id="node3" class="node">
<title>Node6</title>
<g id="a_node3"><a xlink:title=" ">
<polygon fill="none" stroke="#bfbfbf" points="59,-134.5 59,-153.5 132,-153.5 132,-134.5 59,-134.5"/>
<text text-anchor="middle" x="95.5" y="-141.5" font-family="Helvetica,sans-Serif" font-size="10.00">AspectData</text>
</a>
</g>
</g>
<!-- Node6&#45;&gt;Node5 -->
<g id="edge2" class="edge">
<title>Node6&#45;&gt;Node5</title>
<path fill="none" stroke="midnightblue" d="M95.5,-124.23C95.5,-115.59 95.5,-105.5 95.5,-97.52"/>
<polygon fill="midnightblue" stroke="midnightblue" points="92,-124.48 95.5,-134.48 99,-124.48 92,-124.48"/>
</g>
</g>
</svg>
