<?xml version="1.0" encoding="UTF-8" standalone="no"?>
<!DOCTYPE svg PUBLIC "-//W3C//DTD SVG 1.1//EN"
 "http://www.w3.org/Graphics/SVG/1.1/DTD/svg11.dtd">
<!-- Generated by graphviz version 2.43.0 (0)
 -->
<!-- Title: fiftyone.devicedetection.hash.engine.onpremise.data.DeviceDataHash Pages: 1 -->
<svg width="964pt" height="39pt"
 viewBox="0.00 0.00 964.00 39.00" xmlns="http://www.w3.org/2000/svg" xmlns:xlink="http://www.w3.org/1999/xlink">
<g id="graph0" class="graph" transform="scale(1 1) rotate(0) translate(4 35)">
<title>fiftyone.devicedetection.hash.engine.onpremise.data.DeviceDataHash</title>
<!-- Node0 -->
<g id="node1" class="node">
<title>Node0</title>
<g id="a_node1"><a xlink:title="Hash specific interface for DeviceData.">
<polygon fill="#bfbfbf" stroke="black" points="318,-0.5 318,-30.5 597,-30.5 597,-0.5 318,-0.5"/>
<text text-anchor="start" x="326" y="-18.5" font-family="Helvetica,sans-Serif" font-size="10.00">fiftyone.devicedetection.hash.engine.onpremise.data.</text>
<text text-anchor="middle" x="457.5" y="-7.5" font-family="Helvetica,sans-Serif" font-size="10.00">DeviceDataHash</text>
</a>
</g>
</g>
<!-- Node3 -->
<g id="node4" class="node">
<title>Node3</title>
<g id="a_node4"><a xlink:href="classfiftyone_1_1devicedetection_1_1hash_1_1engine_1_1onpremise_1_1flowelements_1_1_device_data_hash_default.html" target="_top" xlink:title="Internal implementation of the DeviceDataHash interface.">
<polygon fill="none" stroke="black" points="633,-0.5 633,-30.5 956,-30.5 956,-0.5 633,-0.5"/>
<text text-anchor="start" x="641" y="-18.5" font-family="Helvetica,sans-Serif" font-size="10.00">fiftyone.devicedetection.hash.engine.onpremise.flowelements.</text>
<text text-anchor="middle" x="794.5" y="-7.5" font-family="Helvetica,sans-Serif" font-size="10.00">DeviceDataHashDefault</text>
</a>
</g>
</g>
<!-- Node0&#45;&gt;Node3 -->
<g id="edge3" class="edge">
<title>Node0&#45;&gt;Node3</title>
<path fill="none" stroke="midnightblue" d="M607.44,-15.5C615.89,-15.5 624.4,-15.5 632.89,-15.5"/>
<polygon fill="midnightblue" stroke="midnightblue" points="607.18,-12 597.18,-15.5 607.18,-19 607.18,-12"/>
</g>
<!-- Node1 -->
<g id="node2" class="node">
<title>Node1</title>
<g id="a_node2"><a xlink:href="interfacefiftyone_1_1devicedetection_1_1shared_1_1_device_data.html" target="_top" xlink:title="Interface exposing typed accessors for properties related to a device returned by a device detection ...">
<polygon fill="none" stroke="black" points="109,-0.5 109,-30.5 282,-30.5 282,-0.5 109,-0.5"/>
<text text-anchor="start" x="117" y="-18.5" font-family="Helvetica,sans-Serif" font-size="10.00">fiftyone.devicedetection.shared.</text>
<text text-anchor="middle" x="195.5" y="-7.5" font-family="Helvetica,sans-Serif" font-size="10.00">DeviceData</text>
</a>
</g>
</g>
<!-- Node1&#45;&gt;Node0 -->
<g id="edge1" class="edge">
<title>Node1&#45;&gt;Node0</title>
<path fill="none" stroke="midnightblue" d="M292.62,-15.5C300.82,-15.5 309.21,-15.5 317.65,-15.5"/>
<polygon fill="midnightblue" stroke="midnightblue" points="292.35,-12 282.35,-15.5 292.35,-19 292.35,-12"/>
</g>
<!-- Node2 -->
<g id="node3" class="node">
<title>Node2</title>
<g id="a_node3"><a xlink:title=" ">
<polygon fill="none" stroke="#bfbfbf" points="0,-6 0,-25 73,-25 73,-6 0,-6"/>
<text text-anchor="middle" x="36.5" y="-13" font-family="Helvetica,sans-Serif" font-size="10.00">AspectData</text>
</a>
</g>
</g>
<!-- Node2&#45;&gt;Node1 -->
<g id="edge2" class="edge">
<title>Node2&#45;&gt;Node1</title>
<path fill="none" stroke="midnightblue" d="M83.36,-15.5C91.42,-15.5 100.04,-15.5 108.78,-15.5"/>
<polygon fill="midnightblue" stroke="midnightblue" points="83.13,-12 73.13,-15.5 83.13,-19 83.13,-12"/>
</g>
</g>
</svg>
