<?xml version="1.0" encoding="UTF-8" standalone="no"?>
<!DOCTYPE svg PUBLIC "-//W3C//DTD SVG 1.1//EN"
 "http://www.w3.org/Graphics/SVG/1.1/DTD/svg11.dtd">
<!-- Generated by graphviz version 2.43.0 (0)
 -->
<!-- Title: fiftyone.devicedetection.cloud.data.DeviceDataCloud Pages: 1 -->
<svg width="244pt" height="229pt"
 viewBox="0.00 0.00 244.00 229.00" xmlns="http://www.w3.org/2000/svg" xmlns:xlink="http://www.w3.org/1999/xlink">
<g id="graph0" class="graph" transform="scale(1 1) rotate(0) translate(4 225)">
<title>fiftyone.devicedetection.cloud.data.DeviceDataCloud</title>
<!-- Node0 -->
<g id="node1" class="node">
<title>Node0</title>
<g id="a_node1"><a xlink:title="Cloud specific interface for DeviceData.">
<polygon fill="#bfbfbf" stroke="black" points="22.5,-67.5 22.5,-97.5 213.5,-97.5 213.5,-67.5 22.5,-67.5"/>
<text text-anchor="start" x="30.5" y="-85.5" font-family="Helvetica,sans-Serif" font-size="10.00">fiftyone.devicedetection.cloud.data.</text>
<text text-anchor="middle" x="118" y="-74.5" font-family="Helvetica,sans-Serif" font-size="10.00">DeviceDataCloud</text>
</a>
</g>
</g>
<!-- Node3 -->
<g id="node4" class="node">
<title>Node3</title>
<g id="a_node4"><a xlink:href="classfiftyone_1_1devicedetection_1_1cloud_1_1flowelements_1_1_device_data_cloud_internal.html" target="_top" xlink:title="Internal implementation of the DeviceDataCloud interface.">
<polygon fill="none" stroke="black" points="0,-0.5 0,-30.5 236,-30.5 236,-0.5 0,-0.5"/>
<text text-anchor="start" x="8" y="-18.5" font-family="Helvetica,sans-Serif" font-size="10.00">fiftyone.devicedetection.cloud.flowelements.</text>
<text text-anchor="middle" x="118" y="-7.5" font-family="Helvetica,sans-Serif" font-size="10.00">DeviceDataCloudInternal</text>
</a>
</g>
</g>
<!-- Node0&#45;&gt;Node3 -->
<g id="edge3" class="edge">
<title>Node0&#45;&gt;Node3</title>
<path fill="none" stroke="midnightblue" d="M118,-57.11C118,-48.15 118,-38.32 118,-30.58"/>
<polygon fill="midnightblue" stroke="midnightblue" points="114.5,-57.4 118,-67.4 121.5,-57.4 114.5,-57.4"/>
</g>
<!-- Node1 -->
<g id="node2" class="node">
<title>Node1</title>
<g id="a_node2"><a xlink:href="interfacefiftyone_1_1devicedetection_1_1shared_1_1_device_data.html" target="_top" xlink:title="Interface exposing typed accessors for properties related to a device returned by a device detection ...">
<polygon fill="none" stroke="black" points="31.5,-134.5 31.5,-164.5 204.5,-164.5 204.5,-134.5 31.5,-134.5"/>
<text text-anchor="start" x="39.5" y="-152.5" font-family="Helvetica,sans-Serif" font-size="10.00">fiftyone.devicedetection.shared.</text>
<text text-anchor="middle" x="118" y="-141.5" font-family="Helvetica,sans-Serif" font-size="10.00">DeviceData</text>
</a>
</g>
</g>
<!-- Node1&#45;&gt;Node0 -->
<g id="edge1" class="edge">
<title>Node1&#45;&gt;Node0</title>
<path fill="none" stroke="midnightblue" d="M118,-124.11C118,-115.15 118,-105.32 118,-97.58"/>
<polygon fill="midnightblue" stroke="midnightblue" points="114.5,-124.4 118,-134.4 121.5,-124.4 114.5,-124.4"/>
</g>
<!-- Node2 -->
<g id="node3" class="node">
<title>Node2</title>
<g id="a_node3"><a xlink:title=" ">
<polygon fill="none" stroke="#bfbfbf" points="81.5,-201.5 81.5,-220.5 154.5,-220.5 154.5,-201.5 81.5,-201.5"/>
<text text-anchor="middle" x="118" y="-208.5" font-family="Helvetica,sans-Serif" font-size="10.00">AspectData</text>
</a>
</g>
</g>
<!-- Node2&#45;&gt;Node1 -->
<g id="edge2" class="edge">
<title>Node2&#45;&gt;Node1</title>
<path fill="none" stroke="midnightblue" d="M118,-191.23C118,-182.59 118,-172.5 118,-164.52"/>
<polygon fill="midnightblue" stroke="midnightblue" points="114.5,-191.48 118,-201.48 121.5,-191.48 114.5,-191.48"/>
</g>
</g>
</svg>
